<svg id="vuesax_bold_card" data-name="vuesax/bold/card" xmlns="http://www.w3.org/2000/svg" width="20" height="20" viewBox="0 0 20 20">
  <g id="card">
    <path id="Vector" d="M16.667,3.458a1,1,0,0,1-1,1H1a1,1,0,0,1-1-1V3.45A3.446,3.446,0,0,1,3.45,0h9.758a3.46,3.46,0,0,1,3.458,3.458Z" transform="translate(1.667 2.833)" fill="#fff"/>
    <path id="Vector-2" data-name="Vector" d="M1,0H15.667a1,1,0,0,1,1,1V5.167a3.46,3.46,0,0,1-3.458,3.458H3.45A3.446,3.446,0,0,1,0,5.175V1A1,1,0,0,1,1,0ZM5.625,5.208A.63.63,0,0,0,5,4.583H3.333a.625.625,0,1,0,0,1.25H5A.63.63,0,0,0,5.625,5.208Zm5.417,0a.63.63,0,0,0-.625-.625H7.083a.625.625,0,0,0,0,1.25h3.333A.63.63,0,0,0,11.042,5.208Z" transform="translate(1.667 8.542)" fill="#fff"/>
    <path id="Vector-3" data-name="Vector" d="M0,0H20V20H0Z" fill="none" opacity="0"/>
  </g>
</svg>
