<svg xmlns="http://www.w3.org/2000/svg" width="24" height="24" viewBox="0 0 24 24">
  <g id="noun-terminal-5206614" transform="translate(-98.002 -28)">
    <path id="Path_94456" data-name="Path 94456" d="M116.1,28H103.9A5.907,5.907,0,0,0,98,33.9V46.1a5.907,5.907,0,0,0,5.9,5.9h12.2a5.907,5.907,0,0,0,5.9-5.9V33.9a5.907,5.907,0,0,0-5.9-5.9Z" fill="#fff"/>
    <path id="Path_94457" data-name="Path 94457" d="M211.8,199.857a.727.727,0,0,0-.22-.387l-4-3.333a.668.668,0,1,0-.853,1.027l3.387,2.82-3.387,2.82a.668.668,0,1,0,.853,1.027l4-3.333a.713.713,0,0,0,.22-.64Z" transform="translate(-103.317 -159.984)" fill="#1e1f25"/>
    <path id="Path_94458" data-name="Path 94458" d="M346.167,336h-6a.667.667,0,0,0,0,1.333h6a.667.667,0,0,0,0-1.333Z" transform="translate(-229.998 -293.333)" fill="#1e1f25"/>
  </g>
</svg>
