<svg xmlns="http://www.w3.org/2000/svg" width="20" height="20" viewBox="0 0 20 20">
  <g id="noun-chain-1655550" transform="translate(-70.937 -14.141)">
    <path id="Path_94447" data-name="Path 94447" d="M96.886,211.746a4.451,4.451,0,0,0,.358-1.727,4.373,4.373,0,0,0-.147-1.159,5.475,5.475,0,0,0-.274-.758,4.179,4.179,0,0,0-.842-1.18,5.037,5.037,0,0,0-1.179-.842l-.632.632a1.467,1.467,0,0,0-.379,1.348,2.219,2.219,0,0,1,1.074,1.074,2.484,2.484,0,0,1,.189.779,2.155,2.155,0,0,1-.632,1.685l-4.505,4.423a2.174,2.174,0,0,1-3.074-3.075l3.474-3.475a5.065,5.065,0,0,1-.168-2.907c-.147.105-.274.232-.421.358l-4.442,4.444A4.367,4.367,0,0,0,84,214.484a4.319,4.319,0,0,0,1.284,3.1,4.408,4.408,0,0,0,6.211,0l4.463-4.465a3.447,3.447,0,0,0,.358-.421,4.349,4.349,0,0,0,.568-.948Z" transform="translate(-13.065 -184.72)" fill="#4bc1db"/>
    <path id="Path_94448" data-name="Path 94448" d="M277,18.517a4.319,4.319,0,0,0-1.284-3.1,4.408,4.408,0,0,0-6.211,0l-4.463,4.466a3.446,3.446,0,0,0-.358.421,4.359,4.359,0,0,0-.568.948,4.451,4.451,0,0,0-.358,1.727,4.373,4.373,0,0,0,.147,1.159,5.468,5.468,0,0,0,.274.758,4.179,4.179,0,0,0,.842,1.18,4.493,4.493,0,0,0,1.179.842l.632-.632a1.467,1.467,0,0,0,.379-1.348,2.219,2.219,0,0,1-1.074-1.074,2.484,2.484,0,0,1-.189-.779,2.154,2.154,0,0,1,.632-1.685l4.505-4.423a2.174,2.174,0,0,1,3.074,3.075l-3.495,3.5a5.065,5.065,0,0,1,.168,2.907c.147-.105.274-.232.421-.358l4.463-4.466A4.367,4.367,0,0,0,277,18.517Z" transform="translate(-186.065 0)" fill="#4bc1db"/>
  </g>
</svg>
