<svg id="noun-eye-5540965" xmlns="http://www.w3.org/2000/svg" width="20" height="13.478" viewBox="0 0 20 13.478">
  <path id="Path_94035" data-name="Path 94035" d="M94,114.213c-6.415,0-9.786-6.182-9.927-6.445a.626.626,0,0,1,0-.588c.14-.263,3.511-6.445,9.927-6.445s9.786,6.182,9.927,6.445a.626.626,0,0,1,0,.588C103.785,108.032,100.414,114.213,94,114.213Zm-8.65-6.739c.731,1.178,3.742,5.489,8.65,5.489s7.918-4.31,8.65-5.489c-.732-1.179-3.742-5.489-8.65-5.489S86.081,106.295,85.349,107.474Z" transform="translate(-83.999 -100.735)" fill="#b7b7ba"/>
  <path id="Path_94036" data-name="Path 94036" d="M240.084,174.377a4.294,4.294,0,1,1,4.294-4.294A4.3,4.3,0,0,1,240.084,174.377Zm0-7.337a3.043,3.043,0,1,0,3.043,3.043A3.047,3.047,0,0,0,240.084,167.04Z" transform="translate(-230.084 -163.344)" fill="#b7b7ba"/>
</svg>
