<svg xmlns="http://www.w3.org/2000/svg" width="45" height="45" viewBox="0 0 45 45">
  <g id="Facebook" transform="translate(-1135 -6717)">
    <g id="facebook-2" data-name="facebook">
      <g id="Oval_Copy" data-name="Oval Copy" transform="translate(1135 6717)" fill="none" opacity="0.25">
        <path d="M22.5,45A22.5,22.5,0,1,0,0,22.5,22.5,22.5,0,0,0,22.5,45Z" stroke="none"/>
        <path d="M 22.5 43 C 25.26836013793945 43 27.95285987854004 42.45825958251953 30.47891044616699 41.38983154296875 C 32.9197998046875 40.357421875 35.11235809326172 38.87902069091797 36.99568939208984 36.99568939208984 C 38.87902069091797 35.11235809326172 40.357421875 32.9197998046875 41.38983154296875 30.47891044616699 C 42.45825958251953 27.95285987854004 43 25.26836013793945 43 22.5 C 43 19.73163986206055 42.45825958251953 17.04714012145996 41.38983154296875 14.52108955383301 C 40.357421875 12.0802001953125 38.87902069091797 9.887639999389648 36.99568939208984 8.00430965423584 C 35.11235809326172 6.120979785919189 32.9197998046875 4.642580032348633 30.47891044616699 3.610169887542725 C 27.95285987854004 2.541739940643311 25.26836013793945 2 22.5 2 C 19.73163986206055 2 17.04714012145996 2.541739940643311 14.52108955383301 3.610169887542725 C 12.0802001953125 4.642580032348633 9.887639999389648 6.120979785919189 8.00430965423584 8.00430965423584 C 6.120979785919189 9.887639999389648 4.642580032348633 12.0802001953125 3.610169887542725 14.52108955383301 C 2.541739940643311 17.04714012145996 2 19.73163986206055 2 22.5 C 2 25.26836013793945 2.541739940643311 27.95285987854004 3.610169887542725 30.47891044616699 C 4.642580032348633 32.9197998046875 6.120979785919189 35.11235809326172 8.00430965423584 36.99568939208984 C 9.887639999389648 38.87902069091797 12.0802001953125 40.357421875 14.52108955383301 41.38983154296875 C 17.04714012145996 42.45825958251953 19.73163986206055 43 22.5 43 M 22.5 45 C 10.07359027862549 45 -3.552713678800501e-15 34.92641067504883 -3.552713678800501e-15 22.5 C -3.552713678800501e-15 10.07359027862549 10.07359027862549 -3.552713678800501e-15 22.5 -3.552713678800501e-15 C 34.92641067504883 -3.552713678800501e-15 45 10.07359027862549 45 22.5 C 45 34.92641067504883 34.92641067504883 45 22.5 45 Z" stroke="none" fill="#fff"/>
      </g>
      <path id="Shape" d="M2.7,14.393l-.02-6.3H0V5.4H2.679V3.6A3.3,3.3,0,0,1,6.321,0,19.8,19.8,0,0,1,8.494.112V2.649H7c-1.169,0-1.4.56-1.4,1.381V5.4H8.929L8.036,8.1H5.607v6.3Z" transform="translate(1153 6732)" fill="#fff"/>
    </g>
  </g>
</svg>
