<svg version="1.2" xmlns="http://www.w3.org/2000/svg" viewBox="0 0 20 20" width="20" height="20">
	<title>New Project</title>
	<style>
		.s0 { fill: #000000 } 
	</style>
	<g id="Layer">
		<path id="Layer" class="s0" d="m9.8 1q-1.8 0.2-3 1.5c-0.7 0.7-1.2 1.5-1.4 2.6-0.1 0.4-0.1 1.4 0 1.8 0.2 1.1 0.7 1.9 1.4 2.6 0.8 0.8 1.6 1.2 2.6 1.4 0.5 0.1 1.4 0.1 1.9 0 1-0.2 1.8-0.6 2.6-1.4 0.7-0.7 1.2-1.5 1.4-2.6 0.1-0.4 0.1-1.4 0-1.8q-0.2-1.1-0.8-1.9c-0.2-0.4-1-1.1-1.3-1.3-0.6-0.4-1.3-0.7-1.9-0.8-0.3-0.1-1.2-0.1-1.5-0.1z"/>
		<path id="Layer" class="s0" d="m8.4 12.2c-2.1 0.2-4 1.4-5.2 3.2-0.7 1.1-1.1 2.3-1.2 3.7 0 0.4 0 0.5 0.1 0.6q0 0.1 0.2 0.2c0.1 0.1 0.2 0.1 8.1 0.1 7.8 0 7.9 0 8-0.1q0.2-0.1 0.2-0.2c0.1-0.1 0.1-0.2 0.1-0.6-0.1-1.8-0.8-3.4-2.1-4.8-1.2-1.2-2.7-2-4.4-2.1-0.6-0.1-3.3-0.1-3.8 0z"/>
	</g>
</svg>