<svg id="refresh_black_24dp" xmlns="http://www.w3.org/2000/svg" width="24" height="24" viewBox="0 0 24 24">
  <path id="Path_94473" data-name="Path 94473" d="M0,0H24V24H0Z" fill="none"/>
  <path id="Path_94474" data-name="Path 94474" d="M21.055,6.938a9.936,9.936,0,0,0-8.1-2.887A10,10,0,1,0,23,18.3a1.252,1.252,0,0,0-1.125-1.8,1.216,1.216,0,0,0-1.1.662A7.493,7.493,0,1,1,13.994,6.5a7.392,7.392,0,0,1,5.274,2.225l-1.887,1.887a1.25,1.25,0,0,0,.875,2.137h4.487a1.253,1.253,0,0,0,1.25-1.25V7.013a1.254,1.254,0,0,0-2.137-.887l-.8.812Z" transform="translate(-2.004 -1.997)" fill="#fff"/>
</svg>
