<svg version="1.2" xmlns="http://www.w3.org/2000/svg" viewBox="0 0 1944 614" width="1944" height="614">
	<title>wave-svg</title>
	<defs>
		<clipPath clipPathUnits="userSpaceOnUse" id="cp1">
			<path d="m0-163h1944v946h-1944z"/>
		</clipPath>
	</defs>
	<style>
		.s0 { opacity: .5;fill: none;stroke: #4bc1db;stroke-width: .6 } 
	</style>
	<g id="Wave" style="opacity: .7">
		<g id="Clip-Path: Mask_Group_2" clip-path="url(#cp1)">
			<g id="Mask_Group_2">
				<g id="Group_10">
					<g id="Group">
						<path id="Vector" class="s0" d="m-1186-163c139.6 95.3 285.6 182.6 442 246.7 50.7 20.8 102.9 39.2 157 47.5 110.5 16.8 222.6-9.5 334.3-13 141.9-4.5 284.5 29.2 410.1 95.2 94.5 49.7 200.8 121.7 307.7 139.8 97.1 16.4 201.6-73 287.6-107.8 88-35.7 186.5-43.3 279.6-25q18.3 3.6 36.2 8.6 18 4.9 35.6 11.2 17.5 6.3 34.5 13.8 17.1 7.6 33.5 16.5c41.8 22.6 78.2 64.7 127.7 31.6 16.4-10.9 27.7-27.8 41.8-41.6 48.9-47.9 134.4-51.6 187.3-8.2"/>
						<path id="Vector-2" class="s0" d="m-1179.8-160c136.4 96.6 280.9 184.8 436.4 248.7 51.8 21.3 105.1 39.1 160.2 48.3 66.5 11 133.7 7 201.2 1.2 46-4 92.2-8.8 138.3-10.1q34-0.9 68.1 0.7 34 1.6 67.8 5.7 33.9 4.1 67.3 10.6 33.4 6.6 66.3 15.7 19 5.2 37.7 11.2 18.8 6 37.3 12.9 18.4 6.8 36.6 14.5 18.1 7.6 35.9 16.1c33.2 15.7 67.6 33.8 102.9 51.5 49.7 24.8 101.1 48.6 153.4 63.9q7 2 14 3.9 7 1.8 14.1 3.4 7 1.6 14.2 3 7.1 1.3 14.2 2.5c78.1 11.9 160.8-38.5 235.2-75.5 19.9-10 39.3-19 57.8-25.6 76.1-27.4 159.1-34.3 239.4-22.4q20.8 3.1 41.3 7.9 18.3 4.2 36.3 9.8 18 5.5 35.6 12.3 17.6 6.7 34.6 14.7 17.1 8 33.6 17.1c26.1 14.5 50.3 36.1 76.9 42.9 16.4 4.2 33.7 2.7 52.8-9.3 16.8-10.4 28.8-26.6 43.4-39.9 50.6-46.3 136.8-50.4 191.3-7.5"/>
						<path id="Vector-3" class="s0" d="m-1173.7-157c133.3 97.8 276.3 187 431 250.6 52.9 21.9 107.2 39.2 163.3 49.3 67.3 12 135.6 9.1 204.1 4.1 46.7-3.4 93.7-7.8 140.5-9q34.6-0.9 69.1 0.5 34.6 1.5 68.9 5.2 34.4 3.7 68.4 9.7 34.1 6 67.7 14.3 19.2 4.7 38.2 10.2 19 5.4 37.8 11.7 18.8 6.2 37.3 13.2 18.5 7 36.7 14.8c33.8 14.3 68.8 30.9 104.6 47 50.5 22.5 102.6 44 155.8 57.9q7.1 1.9 14.2 3.6 7.2 1.6 14.4 3.1 7.2 1.4 14.4 2.7 7.2 1.2 14.5 2.3c79.6 10.8 163.9-37.1 239.6-71.2 20.3-9.2 40-17.3 58.8-23.2 77.1-24.1 160.3-28.1 240.5-13.4q20.7 3.8 41.2 9.3 18.4 4.9 36.4 11 18 6.2 35.6 13.4 17.6 7.3 34.7 15.7 17.1 8.3 33.6 17.8c26.4 15 51 36.7 78.1 43.8 16.8 4.4 34.3 3.2 53.8-8.2 17.1-10 29.7-25.5 44.8-38.4 52.5-44.6 139.4-49 195.3-6.7"/>
						<path id="Vector-4" class="s0" d="m-1167.5-154c130.1 99.1 271.5 189.2 425.4 252.6q20.1 8.3 40.6 15.6 20.5 7.4 41.3 13.6 20.9 6.3 42 11.6 21.1 5.2 42.5 9.3c68.2 13.1 137.5 11.3 207 7.1 47.6-2.8 95.2-6.8 142.9-7.9q35-0.8 70.1 0.4 35 1.3 69.9 4.7 34.9 3.3 69.6 8.7 34.6 5.4 68.9 12.9 19.4 4.2 38.7 9.2 19.3 4.9 38.4 10.5 19 5.7 37.9 12 18.9 6.3 37.5 13.4c34.4 12.9 70 27.9 106.4 42.4 51.2 20.3 104 39.5 158.2 52q7.2 1.7 14.5 3.2 7.2 1.5 14.5 2.8 7.4 1.4 14.7 2.5 7.3 1.1 14.7 2c81.1 9.8 167.1-35.5 244.2-66.7 20.6-8.4 40.5-15.8 59.6-20.9 78.1-21 161.6-21.9 241.7-4.4q20.7 4.6 41.1 10.7c48.5 14.6 95.7 35.7 140.6 61.8 26.5 15.5 51.6 37.3 79.2 44.8 17.1 4.6 34.9 3.6 54.7-7.2 17.5-9.5 30.7-24.4 46.4-36.8 54.2-43 141.8-47.7 199.2-6"/>
						<path id="Vector-5" class="s0" d="m-1161.4-151.1c127 100.5 266.9 191.4 419.9 254.6 55.1 22.9 111.6 39.2 169.6 51.1 69 14.2 139.3 13.4 209.9 10 48.3-2.3 96.7-5.8 145.1-6.8q35.6-0.8 71.2 0.3 35.5 1.2 71 4.2 35.4 2.9 70.7 7.8 35.2 4.8 70.1 11.4 19.7 3.8 39.3 8.2 19.5 4.4 38.9 9.4 19.4 5 38.6 10.7 19.2 5.7 38.2 12c35.1 11.6 71.3 25 108.1 37.9 52 18.1 105.6 35 160.7 46 19.6 4 39.5 7.3 59.3 9.5 82.7 8.7 170.3-34.1 248.7-62.5 20.9-7.6 41.2-14.1 60.6-18.5 79-17.8 162.8-15.7 242.7 4.6q20.7 5.3 41.1 12.1c48.4 16.3 95.6 38.9 140.8 65.8 26.8 16 52.3 37.9 80.4 45.7 17.4 4.9 35.5 4.1 55.6-6.1 17.9-9.1 31.8-23.3 47.9-35.2 56-41.4 144.3-46.5 203.2-5.3"/>
						<path id="Vector-6" class="s0" d="m-1155.2-148.1c123.7 101.7 262.2 193.6 414.3 256.6 56.2 23.4 113.7 39.1 172.7 52 69.9 15.2 141.2 15.5 212.9 13 49-1.8 98.2-4.9 147.4-5.9q36.1-0.6 72.2 0.3 36 1 72 3.6 36 2.6 71.8 6.9 35.9 4.2 71.5 10.1 19.9 3.2 39.7 7.1 19.8 3.8 39.5 8.3 19.7 4.4 39.3 9.4 19.5 5 38.9 10.5c35.7 10.3 72.5 22.2 109.9 33.5 52.8 15.9 107.1 30.2 163 40 20 3.5 40.1 6.4 60.3 8.3 84.3 7.7 173.5-32.6 253.2-58.1 21.3-6.7 41.8-12.5 61.5-16.1 80.1-14.7 164-9.6 243.9 13.6q20.6 6 41 13.5c48.3 17.9 95.5 42 141.1 69.8 27 16.5 52.9 38.5 81.5 46.6 17.7 5.1 36.1 4.5 56.5-5 18.4-8.7 32.8-22.2 49.5-33.7 57.7-39.8 146.7-45.2 207.2-4.6"/>
						<path id="Vector-7" class="s0" d="m-1149.1-145.1c120.6 103 257.6 195.8 408.8 258.5 57.3 23.9 115.9 39.1 175.9 52.9 70.7 16.3 143 17.7 215.8 16 49.7-1.2 99.7-4 149.7-4.8q36.6-0.6 73.2 0.3 36.6 0.8 73.1 3 36.5 2.3 73 5.9 36.4 3.6 72.6 8.7 20.2 2.8 40.3 6.1 20.1 3.3 40.1 7.1 20 3.9 39.9 8.2 19.9 4.3 39.6 9.1c36.4 8.9 73.7 19.3 111.6 29 53.6 13.7 108.6 25.6 165.5 34 20.3 3 40.7 5.6 61.3 7.2 85.7 6.6 176.6-31.2 257.6-53.7 21.6-6 42.5-10.9 62.4-13.8 81.1-11.6 165.3-3.4 245.1 22.6q20.6 6.7 40.9 15c48.2 19.5 95.4 45 141.4 73.6 27.2 17 53.5 39.1 82.6 47.6 18 5.3 36.8 5 57.4-4 18.8-8.2 33.9-21.1 51.1-32 59.4-38.2 149.1-44 211.1-3.9"/>
						<path id="Vector-8" class="s0" d="m-1142.9-142.1c117.4 104.3 252.9 198 403.3 260.4 58.3 24.5 118.1 39.1 178.9 53.9 71.6 17.3 144.9 19.9 218.8 18.9 50.4-0.6 101.2-3 151.9-3.7q37.2-0.5 74.3 0.1 37.1 0.7 74.2 2.6 37.1 1.9 74.1 4.9 37 3.1 73.9 7.3c56 6.4 110.3 15.1 162.4 25.7 37 7.5 74.9 16.3 113.3 24.4 54.4 11.5 110.1 21.1 167.9 28.1 20.6 2.5 41.3 4.7 62.2 6.1 87.3 5.5 179.7-29.8 262.2-49.4 21.8-5.2 43-9.3 63.3-11.4 82-8.5 166.5 2.8 246.2 31.6q20.5 7.4 40.8 16.4c48.1 21.1 95.3 48.2 141.6 77.6 27.5 17.5 54.2 39.7 83.9 48.5 18.3 5.5 37.3 5.4 58.2-3 19.2-7.6 34.9-19.9 52.6-30.4 61.2-36.6 151.6-42.7 215.1-3.2"/>
						<path id="Vector-9" class="s0" d="m-1136.8-139.1c114.3 105.5 248.2 200.2 397.8 262.4 59.4 25 120.3 39.1 182.1 54.7 72.4 18.4 146.7 22.1 221.6 21.9 51.2 0 102.8-2 154.3-2.6q37.7-0.5 75.3 0.1 37.7 0.5 75.3 2 37.7 1.5 75.2 4 37.6 2.4 75.1 5.8c56.9 5.2 112 12.3 164.9 20.9 37.7 6.2 76.1 13.4 115.1 19.9 55.1 9.3 111.5 16.5 170.3 22.1 20.9 2 41.9 3.9 63.1 5 88.9 4.5 182.9-28.4 266.7-45 22.2-4.4 43.6-7.7 64.2-9.1 83-5.3 167.8 9 247.3 40.6q20.5 8.2 40.7 17.8c48.1 22.8 95.2 51.3 142 81.6 27.7 17.9 54.8 40.3 84.9 49.4 18.7 5.7 38.1 5.9 59.2-1.9 19.6-7.2 35.9-18.8 54.2-28.9 62.9-34.9 154-41.4 219-2.4"/>
						<path id="Vector-10" class="s0" d="m-1130.6-136.1c111.1 106.8 243.5 202.3 392.2 264.3 60.5 25.5 122.5 39.1 185.3 55.7 73.3 19.4 148.6 24.2 224.5 24.9 52 0.5 104.3-1.1 156.6-1.7 103.2-1 206.7 2.4 305.4 9 57.7 3.9 113.6 9.4 167.3 16.1 38.3 4.8 77.4 10.5 116.8 15.4 56 7 113 11.9 172.8 16.1 21.2 1.5 42.6 3 64.1 3.9 90.3 3.4 186-27 271.1-40.7 22.5-3.6 44.3-6.1 65.2-6.7 83.9-2.2 169 15.2 248.4 49.6 13.7 5.9 27.2 12.4 40.7 19.2 48 24.5 95 54.4 142.1 85.5 28 18.5 55.5 40.9 86.2 50.4 18.9 6 38.6 6.4 60.1-0.8 20-6.8 36.9-17.7 55.7-27.3 64.7-33.4 156.4-40.2 223-1.8"/>
						<path id="Vector-11" class="s0" d="m-1124.4-133.2c107.8 108.2 238.8 204.6 386.6 266.4 61.6 26 124.6 39 188.4 56.5 74.2 20.4 150.5 26.4 227.5 27.9 52.7 1 105.8-0.1 158.8-0.6 104.7-0.9 209.8 1.6 309.9 6.1 58.6 2.6 115.3 6.4 169.8 11.2 39 3.4 78.6 7.5 118.6 10.9 56.7 4.8 114.5 7.3 175.2 10.2 21.4 1 43.2 2 65 2.7 91.9 2.4 189.1-25.6 275.7-36.3 22.8-2.9 44.8-4.6 66.1-4.4 84.7 0.9 170.2 21.3 249.5 58.6q20.4 9.6 40.6 20.6c47.9 26.2 94.9 57.6 142.4 89.5 28.2 19 56.1 41.5 87.3 51.4 19.3 6.1 39.3 6.8 61 0.1 20.4-6.2 37.9-16.5 57.2-25.7 66.6-31.6 158.9-38.8 227-1"/>
						<path id="Vector-12" class="s0" d="m-1118.3-130.2c104.7 109.4 234.2 206.8 381.1 268.3 62.7 26.5 126.9 39 191.6 57.5 75 21.4 152.3 28.5 230.4 30.8 53.4 1.6 107.2 0.8 161.1 0.5 106.2-0.7 212.8 0.7 314.4 3.1 59.4 1.4 116.9 3.6 172.3 6.4 39.6 2 79.8 4.6 120.3 6.4 57.5 2.5 115.9 2.7 177.5 4.2 21.8 0.5 43.8 1.2 66 1.6 93.5 1.3 192.3-24.2 280.2-32 23.1-2.1 45.5-3 67-2 85.7 3.9 171.4 27.5 250.7 67.6 13.6 6.9 27.1 14.3 40.5 22 47.8 27.8 94.8 60.7 142.7 93.4 28.4 19.5 56.7 42.1 88.4 52.3q7.4 2.5 15.2 3.8 7.8 1.4 15.6 1.5 7.9 0.2 15.7-0.8 7.8-1.1 15.4-3.2c20.9-5.8 39-15.5 58.8-24.2 68.3-29.9 161.4-37.5 230.9-0.3"/>
						<path id="Vector-13" class="s0" d="m-1112.1-127.2c101.5 110.7 229.5 209 375.6 270.3 63.7 27 129 38.9 194.6 58.4 75.9 22.4 154.2 30.6 233.4 33.7 54.1 2.2 108.7 1.8 163.4 1.6 107.7-0.5 215.8-0.1 318.8 0.1 60.3 0.1 118.6 0.7 174.8 1.6 40.3 0.6 81 1.7 122 1.8 58.3 0.3 117.5-1.8 180-1.7 22.1 0 44.4 0.3 66.9 0.5 95 0.2 195.4-22.8 284.7-27.7q8.5-0.5 17-0.7 8.5-0.2 17-0.2 8.5 0.1 17 0.4 8.5 0.3 17 0.9c86.6 7 172.6 33.7 251.7 76.6 13.6 7.4 27.1 15.2 40.5 23.5 47.7 29.4 94.7 63.8 142.9 97.3 28.7 20 57.4 42.7 89.6 53.3q7.6 2.5 15.4 3.9 7.9 1.5 15.8 1.7 8 0.3 16-0.5 7.9-0.9 15.6-2.9c21.3-5.2 40-14.3 60.4-22.5 70-28.4 163.8-36.3 234.9 0.4"/>
						<path id="Vector-14" class="s0" d="m-1106-124.2c98.4 112 224.9 210.9 370.1 272.2 64.9 27.5 131.2 38.9 197.8 59.3 76.7 23.5 156 32.9 236.2 36.8 54.9 2.7 110.3 2.7 165.7 2.6 109.3-0.3 218.9-0.9 323.4-2.9 61.1-1.1 120.2-2.2 177.2-3.2 41-0.8 82.3-1.3 123.8-2.7 59.1-1.9 118.9-6.4 182.4-7.7 22.4-0.5 45-0.5 67.9-0.6 96.5-0.8 198.5-21.5 289.2-23.3q8.6-0.2 17.2-0.2 8.6 0.1 17.2 0.4 8.6 0.4 17.2 1 8.6 0.6 17.2 1.5c87.6 10.1 173.9 39.9 252.9 85.6 13.6 7.9 27 16.2 40.4 24.9 47.6 31.1 94.6 66.9 143.2 101.3 28.9 20.4 58 43.3 90.7 54.2q7.6 2.6 15.6 4.1 7.9 1.5 16 1.9 8.1 0.4 16.2-0.2 8-0.7 15.9-2.5c21.8-4.8 41-13.2 61.9-21 71.8-26.7 166.3-35 238.9 1.2"/>
						<path id="Vector-15" class="s0" d="m-1099.8-121.2c95.2 113.2 220.2 213.1 364.5 274.2 66 27.9 133.4 38.8 200.9 60.2 77.6 24.4 157.9 35 239.2 39.7 55.6 3.2 111.8 3.7 168 3.6 110.8-0.1 222-1.6 327.9-5.8q92.8-3.6 179.6-8.1c41.7-2.1 83.5-4.2 125.5-7.1 59.9-4.2 120.4-11 184.9-13.7 22.7-1 45.6-1.4 68.8-1.8 98.1-1.8 201.6-20 293.7-18.9q8.7 0.1 17.5 0.4 8.7 0.4 17.5 1 8.7 0.6 17.4 1.6 8.7 0.9 17.4 2.1c88.5 13.1 175.1 46.1 254 94.6 13.5 8.3 26.9 17.1 40.3 26.3 47.6 32.7 94.5 70 143.5 105.2 29.1 21 58.6 43.9 91.8 55.2q7.8 2.6 15.8 4.2 8.1 1.7 16.2 2.2 8.2 0.6 16.4 0 8.2-0.5 16.3-2.1c22.1-4.2 42-12 63.4-19.4 73.5-25.1 168.7-33.7 242.8 1.9"/>
						<path id="Vector-16" class="s0" d="m-1093.7-118.2c92 114.5 215.6 215.2 359 276.1 67.1 28.5 135.6 38.8 204.1 61.1 78.4 25.5 159.7 37.2 242.1 42.7 56.4 3.8 113.3 4.7 170.2 4.7 112.3 0.1 225-2.4 332.4-8.7q94.1-5.5 182.1-12.9c42.3-3.6 84.8-7.2 127.3-11.7 60.7-6.5 121.9-15.5 187.3-19.7 22.9-1.5 46.2-2.3 69.7-2.9 99.6-2.9 204.8-18.6 298.2-14.6q8.9 0.4 17.8 1 8.8 0.7 17.7 1.6 8.8 0.9 17.6 2.2 8.8 1.2 17.6 2.7c89.5 16.1 176.4 52.3 255.1 103.6 13.6 8.8 26.9 18.1 40.3 27.7 47.5 34.4 94.3 73.2 143.7 109.2 29.4 21.5 59.3 44.5 93 56.1q7.9 2.7 16 4.4 8.1 1.8 16.4 2.4 8.3 0.7 16.7 0.4 8.3-0.4 16.5-1.8c22.6-3.8 43-10.9 65-17.8 75.2-23.5 171.1-32.5 246.7 2.6"/>
						<path id="Vector-17" class="s0" d="m-1087.5-115.3c88.8 115.9 210.8 217.8 353.4 278.1 68.2 29.2 137.8 38.8 207.2 62.1 79.3 26.5 161.6 39.3 245.1 45.6 57.1 4.4 114.8 5.6 172.5 5.8 113.8 0.3 228.1-3.3 336.8-11.7q95.4-7.4 184.7-17.8c42.9-4.9 86-10.1 129-16.2 61.4-8.7 123.3-20 189.7-25.6 23.2-2 46.8-3.1 70.7-4 101.1-3.9 207.8-17.3 302.7-10.2q9 0.6 18 1.6 9 0.9 17.9 2.1 9 1.3 17.9 2.8 8.9 1.5 17.8 3.3c90.4 19.2 177.6 58.4 256.2 112.6 13.5 9.3 26.9 19.1 40.2 29.2 47.4 36 94.2 76.2 144 113 29.6 22 59.9 45.2 94.1 57.1q8 2.8 16.2 4.6 8.3 1.8 16.7 2.6 8.4 0.8 16.8 0.6 8.4-0.2 16.8-1.4c23-3.2 44.1-9.8 66.5-16.2 77-22 173.6-31.2 250.7 3.3"/>
						<path id="Vector-18" class="s0" d="m-1081.3-112.3c85.6 117.1 206 220 347.9 280.1 69.2 29.6 139.9 38.7 210.3 62.9 80.1 27.6 163.5 41.5 247.9 48.7 57.9 4.9 116.4 6.5 174.9 6.8 115.3 0.5 231.1-4.1 341.3-14.7 64.4-6.2 126.9-13.9 187.1-22.6 43.6-6.3 87.2-13 130.7-20.7 62.3-10.9 124.9-24.6 192.1-31.6 23.6-2.5 47.5-4 71.7-5.1 102.7-5 211-15.9 307.2-5.9q9.1 1 18.2 2.2 9.2 1.2 18.2 2.7 9.1 1.6 18.1 3.4 9 1.8 18 4c91.4 22.1 178.8 64.5 257.4 121.5 13.5 9.8 26.8 20 40.1 30.6 47.3 37.6 94.1 79.3 144.2 117 29.9 22.5 60.6 45.7 95.3 58q8.1 2.8 16.4 4.8 8.4 1.9 16.9 2.8 8.5 1 17 0.9 8.6 0 17.1-1c23.5-2.8 45.1-8.8 68.1-14.6 78.7-20.5 176-29.9 254.7 4"/>
						<path id="Vector-19" class="s0" d="m-1075.2-109.3c82.5 118.4 201.4 222.2 342.4 282 70.3 30.2 142.1 38.7 213.4 63.9 81 28.5 165.4 43.6 250.9 51.6 58.6 5.5 117.8 7.5 177.1 7.9 116.9 0.6 234.2-4.9 345.8-17.6 65.3-7.5 128.6-16.8 189.6-27.5 44.3-7.7 88.4-16 132.5-25.2 63-13.2 126.3-29.2 194.5-37.6 23.9-2.9 48.1-4.8 72.6-6.2 104.2-6.1 214.1-14.6 311.7-1.5q9.3 1.2 18.5 2.7 9.3 1.5 18.5 3.3 9.1 1.9 18.3 4 9.1 2.1 18.1 4.6c92.3 25.1 180.1 70.7 258.5 130.5 13.5 10.3 26.8 21 40 32 47.3 39.3 94.1 82.5 144.6 121 30.1 22.9 61.2 46.3 96.4 58.9q8.2 2.9 16.6 4.9 8.4 2.1 17.1 3.1 8.6 1.1 17.3 1.2 8.7 0.2 17.3-0.7c23.9-2.2 46.1-7.6 69.6-13 80.5-18.8 178.5-28.6 258.7 4.7"/>
						<path id="Vector-20" class="s0" d="m-1069-106.3c79.3 119.6 196.7 224.3 336.8 284 71.4 30.7 144.3 38.6 216.6 64.7 81.9 29.6 167.2 45.8 253.8 54.6 59.3 6.1 119.3 8.5 179.4 8.9 118.4 0.9 237.2-5.6 350.3-20.5 66.1-8.8 130.2-19.8 192-32.3 45-9.1 89.7-18.9 134.3-29.7 63.8-15.5 127.8-33.8 196.9-43.6 24.2-3.4 48.7-5.7 73.5-7.3 105.8-7.1 217.3-13.3 316.2 2.8q9.5 1.5 18.8 3.3 9.4 1.8 18.7 3.9 9.3 2.2 18.5 4.6 9.3 2.4 18.4 5.2c93.3 28.1 181.3 76.9 259.6 139.5 13.5 10.7 26.7 21.9 40 33.4 47.2 41 93.9 85.6 144.8 124.9 30.3 23.5 61.8 47 97.5 59.9q8.3 3 16.8 5.1 8.6 2.1 17.3 3.3 8.7 1.3 17.5 1.5 8.8 0.3 17.6-0.3c24.4-1.7 47.2-6.5 71.2-11.5 82.2-17.1 180.9-27.3 262.6 5.5"/>
						<path id="Vector-21" class="s0" d="m-1062.9-103.3c76.1 120.9 192.1 226.5 331.3 285.9 72.5 31.2 146.5 38.6 219.8 65.7 82.7 30.5 169 47.9 256.7 57.5 60 6.6 120.8 9.5 181.7 10 119.9 1.1 240.2-6.4 354.7-23.5 67-10 131.9-22.7 194.5-37.1q68.4-15.8 136-34.3c64.6-17.7 129.3-38.3 199.4-49.5 24.4-3.9 49.3-6.6 74.5-8.4 107.3-8.2 220.4-11.9 320.7 7.1q9.5 1.8 19 3.9 9.5 2.1 18.9 4.6 9.4 2.4 18.8 5.1 9.3 2.7 18.5 5.8c94.3 31.1 182.6 83.1 260.8 148.5 13.4 11.2 26.6 22.9 39.9 34.8 47.1 42.6 93.7 88.7 145 128.9 30.6 23.9 62.5 47.5 98.7 60.8q8.4 3.1 17.1 5.3 8.6 2.2 17.4 3.5 8.9 1.4 17.8 1.8 8.9 0.5 17.8 0c24.8-1.1 48.2-5.3 72.8-9.8 83.9-15.6 183.3-26.1 266.5 6.1"/>
						<path id="Vector-22" class="s0" d="m-1056.7-100.3c72.9 122.2 187.4 228.7 325.7 287.9 73.6 31.7 148.7 38.5 222.9 66.6 83.6 31.5 170.9 50.1 259.7 60.5 60.8 7.1 122.3 10.4 183.9 11 121.4 1.3 243.3-7.2 359.3-26.5 67.8-11.2 133.5-25.5 197-41.9q69.3-17.9 137.7-38.8c65.4-20 130.8-42.8 201.8-55.5 24.7-4.4 49.9-7.4 75.4-9.5 108.8-9.3 223.5-10.6 325.2 11.5q9.7 2.1 19.3 4.5 9.6 2.4 19.2 5.1 9.5 2.7 18.9 5.7 9.5 3 18.8 6.4c95.2 34.1 183.8 89.3 261.9 157.5 13.4 11.7 26.6 23.8 39.8 36.3 47 44.2 93.6 91.8 145.3 132.7 30.8 24.5 63.2 48.2 99.8 61.8q8.5 3.1 17.3 5.5 8.7 2.3 17.7 3.8 8.9 1.4 18 2 9 0.6 18.1 0.4c25.2-0.6 49.2-4.3 74.2-8.3 85.8-13.9 185.9-24.8 270.6 6.9"/>
						<path id="Vector-23" class="s0" d="m-1050.6-97.3c69.8 123.4 182.7 230.9 320.3 289.8 74.6 32.3 150.8 38.5 226 67.5 84.4 32.6 172.7 52.3 262.5 63.5 61.6 7.7 123.9 11.3 186.3 12.1 122.9 1.4 246.3-8.1 363.7-29.5 68.7-12.5 135.2-28.5 199.5-46.7q70.3-20 139.4-43.3c66.2-22.3 132.3-47.4 204.2-61.5q9.5-1.8 19-3.4 9.5-1.5 19.1-2.9 9.6-1.3 19.1-2.4 9.6-1.1 19.2-1.9c110.4-10.3 226.7-9.3 329.7 15.8q9.8 2.4 19.6 5.1 9.7 2.7 19.4 5.7 9.6 3 19.2 6.3 9.5 3.3 19 7c96.1 37.1 185 95.4 263 166.5 13.3 12.2 26.5 24.8 39.7 37.7 46.9 45.9 93.5 94.9 145.5 136.7 31.1 25 63.9 48.8 101 62.7q8.6 3.2 17.5 5.6 8.9 2.5 17.9 4.1 9.1 1.6 18.2 2.3 9.2 0.8 18.4 0.7c25.6 0 50.2-3.1 75.8-6.6 87.5-12.4 188.3-23.6 274.5 7.6"/>
						<path id="Vector-24" class="s0" d="m-1044.4-94.4c66.6 124.8 178 233.2 314.7 291.8 75.7 32.8 153.1 38.4 229.1 68.5 85.4 33.4 174.6 54.4 265.5 66.4 62.3 8.3 125.4 12.3 188.6 13.1 124.4 1.7 249.3-8.8 368.2-32.4q25.6-5.1 51-10.9 25.4-5.7 50.6-12.2 25.3-6.5 50.4-13.6 25-7.1 49.9-14.8 71.3-22.1 141.2-47.8c67-24.6 133.8-51.9 206.6-67.5q9.6-2 19.2-3.7 9.7-1.7 19.3-3.2 9.7-1.5 19.4-2.7 9.7-1.2 19.4-2.2c112-11.3 229.9-7.8 334.2 20.3q10 2.6 19.9 5.6 9.8 3 19.6 6.3 9.8 3.3 19.4 6.9 9.7 3.6 19.2 7.6c97.1 40.1 186.2 101.6 264.1 175.5 13.4 12.6 26.5 25.7 39.7 39.1 46.8 47.5 93.4 98.1 145.8 140.7 31.3 25.4 64.5 49.3 102.1 63.6q8.8 3.3 17.7 5.8 9 2.5 18.2 4.3 9.1 1.7 18.4 2.6 9.3 1 18.6 1.1c26.1 0.5 51.2-2 77.4-5.1 89.2-10.7 190.7-22.3 278.4 8.3"/>
						<path id="Vector-25" class="s0" d="m-1038.3-91.4c63.5 126.1 173.4 235.4 309.2 293.8 76.8 33.3 155.3 38.3 232.3 69.3 86.2 34.4 176.4 56.6 268.4 69.4q23.7 3.3 47.5 5.8 23.8 2.5 47.7 4.3 23.9 1.8 47.8 2.8 23.9 1 47.8 1.3c126 1.9 252.4-9.6 372.7-35.3 70.4-15.1 138.5-34.4 204.4-56.4 48.2-16.2 95.8-33.8 143-52.4 67.7-26.9 135.2-56.3 209-73.4q9.7-2.1 19.4-4 9.8-1.9 19.6-3.6 9.7-1.6 19.6-2.9 9.8-1.3 19.7-2.4c113.4-12.4 232.9-6.5 338.7 24.6q10.1 3 20 6.2 10 3.3 19.9 6.9 9.9 3.6 19.7 7.5 9.7 4 19.3 8.2c98.1 43.1 187.5 107.8 265.3 184.5 13.3 13.1 26.4 26.7 39.6 40.5 46.8 49.2 93.3 101.2 146.1 144.6 31.5 26 65.1 50 103.2 64.6q8.9 3.4 18 6 9 2.6 18.3 4.5 9.3 1.8 18.7 2.9 9.4 1.1 18.8 1.4c26.5 1.1 52.3-0.8 78.9-3.5 91-9.1 193.2-20.9 282.4 9.1"/>
						<path id="Vector-26" class="s0" d="m-1032.1-88.4c60.2 127.3 168.7 237.5 303.6 295.7 77.9 33.9 157.5 38.3 235.4 70.3 87.1 35.4 178.4 58.7 271.3 72.4q24 3.4 48.1 6.1 24.1 2.7 48.3 4.6 24.1 1.9 48.3 3 24.2 1.2 48.5 1.5c127.5 2 255.4-10.4 377.2-38.3 71.2-16.3 140.1-37.3 206.9-61.3 48.8-17.5 97-36.7 144.6-56.8 68.5-29.1 136.8-60.9 211.5-79.4q9.8-2.3 19.6-4.4 9.9-2 19.8-3.8 9.9-1.7 19.8-3.2 10-1.4 20-2.6c115-13.4 236.1-5.2 343.2 28.9q10.2 3.3 20.3 6.9 10.1 3.5 20.1 7.4 10 3.9 19.9 8.2 9.9 4.2 19.6 8.7c99.1 46.1 188.7 114 266.4 193.5 13.2 13.6 26.4 27.7 39.4 41.9 46.8 50.9 93.2 104.3 146.4 148.6 31.8 26.4 65.8 50.6 104.4 65.5q9 3.4 18.2 6.2 9.2 2.7 18.6 4.7 9.3 2 18.8 3.2 9.5 1.3 19.1 1.8c26.9 1.6 53.3 0.2 80.5-1.9 92.7-7.5 195.6-19.7 286.4 9.7"/>
						<path id="Vector-27" class="s0" d="m-1025.9-85.4c57 128.6 164 239.7 298 297.7 79.1 34.3 159.7 38.2 238.6 71.1 87.9 36.5 180.2 60.9 274.2 75.4q24.3 3.7 48.7 6.5 24.3 2.9 48.8 4.9 24.4 2.1 48.9 3.3 24.5 1.2 49 1.6c129 2.2 258.5-11.2 381.7-41.3 72.1-17.5 141.8-40.2 209.4-66.1 49.5-18.9 98.2-39.6 146.4-61.3 69.3-31.4 138.2-65.5 213.9-85.3q9.9-2.6 19.8-4.8 10-2.2 20-4.1 10-1.9 20.1-3.5 10.1-1.5 20.2-2.8c116.6-14.5 239.3-3.9 347.7 33.3q10.4 3.5 20.6 7.4 10.3 3.9 20.4 8.1 10.1 4.2 20 8.7 10 4.5 19.8 9.3c100.1 49.1 190 120.2 267.5 202.5 13.3 14.1 26.4 28.6 39.4 43.3 46.7 52.6 93.1 107.5 146.7 152.6 32 26.9 66.4 51.1 105.5 66.4q9.1 3.5 18.4 6.3 9.3 2.9 18.8 5 9.5 2.1 19.1 3.5 9.6 1.5 19.3 2.2c27.4 2.1 54.3 1.3 82-0.4 94.5-5.9 198.1-18.4 290.4 10.5"/>
						<path id="Vector-28" class="s0" d="m-1019.8-82.4c53.9 129.9 159.3 241.9 292.5 299.6 80.2 34.9 161.9 38.2 241.8 72.1 88.7 37.5 182 63.1 277.1 78.3q24.5 3.9 49.2 7 24.6 3 49.4 5.2 24.7 2.1 49.5 3.4 24.8 1.3 49.6 1.8c130.5 2.4 261.5-12.1 386.2-44.3 72.9-18.8 143.4-43.2 211.8-70.9 50.1-20.4 99.5-42.5 148.2-65.8 70-33.7 139.7-70.1 216.3-91.3q9.9-2.8 20-5.1 10.1-2.4 20.2-4.5 10.2-2 20.4-3.7 10.2-1.7 20.5-3c118-15.6 242.4-2.7 352.2 37.6q10.5 3.9 20.8 8 10.4 4.2 20.6 8.7 10.2 4.5 20.3 9.3 10.1 4.8 20 9.9c101.1 52.1 191.2 126.4 268.6 211.5 13.3 14.6 26.3 29.6 39.4 44.8 46.5 54.1 92.9 110.5 146.9 156.4 32.2 27.5 67 51.8 106.7 67.4q9.1 3.6 18.6 6.5 9.4 2.9 19 5.2 9.6 2.3 19.3 3.8 9.7 1.6 19.6 2.5c27.7 2.7 55.3 2.5 83.5 1.3 96.3-4.3 200.5-17.2 294.3 11.1"/>
						<path id="Vector-29" class="s0" d="m-1013.6-79.4c50.7 131.1 154.6 244.1 287 301.6 81.2 35.4 164 38.1 244.8 72.9 89.6 38.5 183.9 65.3 280.1 81.3q24.8 4.2 49.7 7.4 24.9 3.2 50 5.5 25 2.3 50.1 3.7 25.1 1.4 50.2 1.8c132 2.7 264.5-12.8 390.6-47.1 73.8-20.1 145.1-46.2 214.3-75.8 50.8-21.8 100.7-45.5 149.9-70.3 70.9-35.9 141.2-74.7 218.7-97.3q10.1-2.9 20.3-5.5 10.2-2.5 20.4-4.7 10.3-2.2 20.7-4 10.3-1.8 20.7-3.2c119.6-16.6 245.6-1.4 356.7 42q10.6 4.1 21.1 8.5 10.5 4.5 20.8 9.3 10.4 4.8 20.5 9.9 10.2 5.1 20.2 10.5c102.2 54.9 192.4 132.5 269.8 220.5 13.2 15.1 26.2 30.5 39.2 46.2 46.5 55.8 92.9 113.7 147.2 160.4 32.5 27.9 67.7 52.3 107.8 68.3q9.4 3.7 18.9 6.7 9.5 3 19.2 5.4 9.7 2.4 19.6 4.1 9.8 1.8 19.8 2.9c28.1 3.2 56.3 3.5 85.1 2.8 98-2.7 202.9-15.9 298.2 11.9"/>
						<path id="Vector-30" class="s0" d="m-1007.5-76.5c47.6 132.5 150 246.4 281.5 303.6 82.3 35.9 166.2 38.1 248 73.9 90.4 39.5 185.7 67.4 283 84.3q25 4.3 50.2 7.7 25.2 3.4 50.5 5.8 25.4 2.4 50.7 3.9 25.4 1.5 50.8 2c133.6 2.8 267.6-13.6 395.2-50.1 74.6-21.4 146.7-49.1 216.8-80.6 51.4-23.2 101.9-48.5 151.6-74.9 71.6-38.1 142.6-79.2 221.1-103.2q10.2-3.1 20.5-5.8 10.3-2.7 20.7-5 10.4-2.4 20.8-4.3 10.5-1.9 21-3.4c121.2-17.7 248.8 0 361.2 46.3q10.8 4.4 21.4 9.2 10.6 4.7 21 9.8 10.5 5.1 20.8 10.5 10.3 5.4 20.4 11.1c103.1 57.9 193.6 138.7 270.8 229.5 13.2 15.5 26.2 31.5 39.3 47.6 46.4 57.5 92.7 116.8 147.4 164.3 32.7 28.5 68.3 53 109 69.3q9.4 3.7 19 6.9 9.7 3.1 19.5 5.6 9.8 2.5 19.8 4.4 9.9 1.9 20 3.2c28.6 3.8 57.4 4.7 86.6 4.4 99.8-1 205.4-14.6 302.2 12.6"/>
						<path id="Vector-31" class="s0" d="m-1001.3-73.5c44.3 133.8 145.3 248.5 275.9 305.6 83.4 36.4 168.4 38 251.1 74.8 91.4 40.5 187.6 69.5 286 87.2q25.3 4.5 50.8 8.1 25.4 3.6 51 6.1 25.6 2.6 51.3 4.2 25.7 1.5 51.4 2.1c135.1 3 270.6-14.4 399.7-53.1 75.4-22.6 148.3-52 219.2-85.4 52-24.6 103.1-51.4 153.3-79.4 72.5-40.4 144.2-83.8 223.6-109.2q10.3-3.3 20.7-6.2 10.4-2.8 20.9-5.3 10.5-2.4 21.1-4.5 10.6-2 21.3-3.6c122.6-18.8 251.9 1.3 365.7 50.7q10.8 4.7 21.6 9.7 10.7 5.1 21.3 10.4 10.5 5.4 20.9 11.1 10.4 5.7 20.7 11.7c104 61 194.8 144.9 271.9 238.5 13.2 16 26.2 32.5 39.2 49 46.3 59.1 92.6 119.9 147.6 168.3 33 28.9 69 53.6 110.2 70.2q9.5 3.8 19.3 7.1 9.7 3.2 19.7 5.9 9.9 2.6 20 4.7 10.1 2 20.2 3.5c29 4.4 58.4 5.8 88.2 6 101.5 0.5 207.9-13.3 306.2 13.3"/>
						<path id="Vector-32" class="s0" d="m-995.2-70.5c41.2 135 140.6 250.7 270.4 307.5 84.5 37 170.6 38 254.3 75.7q34.6 15.6 70 29 35.5 13.5 71.7 24.8 36.2 11.3 73 20.4 36.8 9.1 74.1 16c202.5 37.7 414.3 27.1 611-34.5 132.3-41.4 257-104.3 376.8-174.1 73.2-42.7 145.6-88.4 226-115.2 147.7-49.4 313.3-30.1 455.1 34.3 141.8 64.4 261.3 171.1 358.5 292.8 88.2 110.5 167.4 240.5 298.3 293.8 149.7 61 323.6 3 480 43.8"/>
					</g>
					<g id="Group-2">
						<path id="Vector-33" class="s0" d="m-682.7 783c-1.6-170.7 58.7-341.2 167.3-472.9 30.9-37.5 67.1-72.9 112.8-89.3 132-47.5 273 56.3 384 115.2 133.9 71.1 266.4 145.6 405.8 205.6 78.3 33.7 170.3 62.2 246 23.2 76.7-39.6 105.9-131.8 137.6-212.1 36.9-93.5 87.8-183.6 162.5-251 74.7-67.4 175.6-109.9 275.6-98.9 78.3 8.6 149.6 48.3 214.8 92.6 42.8 29.1 83.9 60.5 123.3 94.1 39.4 33.5 76.9 69.2 112.5 106.8 35.5 37.7 68.9 77.2 100.2 118.4 31.3 41.2 60.3 84.1 86.9 128.5"/>
						<path id="Vector-34" class="s0" d="m-687 775.6c-1.4-150.8 51.6-298.4 145.7-425 8.7-11.8 17.7-23.3 27.1-34.6 30.9-36.9 66.8-71.9 111.8-88.5 130.3-47.9 269.1 50.4 379.9 107.2 98.3 50.4 195.9 103.6 296.9 151.7 35.1 16.8 70.4 32.9 106.2 48.1 77.7 33.1 168.6 61.3 243.7 24 76.2-37.7 106.3-126.3 138.9-203.5 38-89.8 89.4-176.5 164-241.2q9.8-8.5 20.1-16.4 10.3-8 21.1-15.2 10.7-7.2 22-13.8 11.2-6.6 22.8-12.4c58-29.2 123-44.2 187.6-37.4 77.5 8.2 148.3 46.3 213.1 88.6 32.5 21.2 64.2 43.7 95 67.5 30.7 23.9 60.4 48.9 89.1 75.2 28.6 26.3 56.2 53.7 82.6 82.3 26.4 28.5 51.6 58.1 75.6 88.7q10.7 13.7 21 27.7 10.3 13.9 20.3 28.1 10 14.2 19.7 28.7 9.6 14.4 18.8 29.1"/>
						<path id="Vector-35" class="s0" d="m-691.2 768.3c-1.4-145.8 54.4-285.3 151.2-412.3 8.8-11.6 17.7-23 27.1-34.1 30.8-36.4 66.4-70.9 110.8-87.6 128.5-48.4 265.1 44.5 375.8 99.2 97.3 48 194 99.8 295 146.9 34.8 16.4 69.8 32.2 105.4 47.1 77 32.4 166.8 60.2 241.4 24.8 75.5-35.9 106.6-121 140.1-194.9 39-86.2 91-169.4 165.4-231.5q9.8-8.2 20.1-15.8 10.3-7.6 21-14.6 10.8-6.9 21.9-13.2 11.1-6.3 22.6-11.9c57.7-28 122-42.5 186-36 76.8 7.9 147.1 44.4 211.4 84.6 130.3 81.3 245.3 181.6 341.1 298.2q10.7 13.1 21.1 26.4 10.4 13.3 20.4 26.9 10.1 13.6 19.8 27.4 9.7 13.9 19.1 27.9"/>
						<path id="Vector-36" class="s0" d="m-695.5 760.9c-1.4-140.8 57.3-272.1 156.7-399.6 8.9-11.3 17.8-22.5 27.1-33.4 30.7-35.9 66-70 109.8-86.8 126.8-48.9 261.2 38.6 371.8 91.1 96.2 45.8 192.1 95.9 293 142.2 34.5 15.9 69.3 31.5 104.6 46.1 76.4 31.7 165.1 59.2 239.1 25.5 75-34 107-115.5 141.3-186.3 40.1-82.6 92.7-162.2 166.9-221.7q9.9-7.9 20.1-15.2 10.3-7.2 21-13.9 10.7-6.7 21.7-12.7 11.1-6 22.5-11.4c57.2-26.8 121-40.7 184.3-34.5 76.1 7.4 145.9 42.3 209.8 80.5 129.5 77.2 243.7 171.7 339.8 282.6q10.7 12.5 21.2 25.2 10.4 12.7 20.5 25.7 10.2 12.9 20 26.2 9.7 13.2 19.2 26.7"/>
						<path id="Vector-37" class="s0" d="m-699.8 753.5c-1.3-135.7 60.1-258.8 162.3-386.8 8.9-11.1 17.7-22.2 27-32.9 30.7-35.4 65.7-69 108.8-86 125-49.4 257.3 32.7 367.7 83.2 95.2 43.4 190.4 92 291.1 137.4 34.3 15.5 68.8 30.7 103.8 45.1 75.8 31.1 163.4 58.1 236.9 26.3 74.3-32.2 107.3-110.1 142.5-177.8 41.1-78.9 94.3-155 168.4-211.9q9.8-7.6 20.1-14.5 10.2-7 20.9-13.4 10.6-6.4 21.6-12.1 10.9-5.7 22.2-10.9c56.9-25.6 120-38.9 182.8-33.1 75.3 7.1 144.6 40.3 208.1 76.5 128.7 73.1 242.2 161.7 338.5 267.1q10.8 11.8 21.3 23.9 10.5 12.1 20.7 24.4 10.2 12.4 20 25 9.9 12.6 19.4 25.5"/>
						<path id="Vector-38" class="s0" d="m-704.1 746.1c-1.2-130.7 62.9-245.6 167.9-374 8.9-10.9 17.7-21.8 26.9-32.4 30.7-34.9 65.4-68 107.8-85.1 123.3-49.9 253.3 26.8 363.7 75.1 94.1 41.2 188.5 88.3 289.1 132.7 34.1 15.1 68.4 30 103 44 75.2 30.5 161.7 57.2 234.6 27.2 73.8-30.4 107.7-104.7 143.8-169.3 42.1-75.2 95.9-147.8 169.9-202.1q9.8-7.2 20-13.9 10.2-6.7 20.8-12.7 10.6-6.1 21.5-11.6 10.9-5.5 22.1-10.3c56.4-24.5 119-37.3 181.1-31.7 74.6 6.6 143.4 38.3 206.4 72.4 128 69 240.7 151.8 337.3 251.6q10.8 11.1 21.4 22.6 10.5 11.5 20.8 23.2 10.3 11.8 20.2 23.8 9.9 12 19.6 24.2"/>
						<path id="Vector-39" class="s0" d="m-708.3 738.8c-1.3-125.7 65.6-232.5 173.4-361.3 8.9-10.7 17.6-21.5 26.9-31.9 30.6-34.3 65-67.1 106.8-84.3 121.5-50.3 249.3 21 359.6 67.2 92.9 38.9 186.6 84.4 287.2 127.9 33.8 14.7 67.8 29.2 102.1 43 74.6 29.8 160 56.1 232.3 27.9 73.3-28.5 108.1-99.2 145.1-160.7 43.1-71.5 97.5-140.6 171.3-192.4q9.9-6.8 20.1-13.2 10.2-6.3 20.7-12.1 10.5-5.8 21.3-11 10.9-5.2 22-9.8c56-23.4 117.9-35.5 179.5-30.3 73.8 6.2 142 36.3 204.7 68.4 127.2 64.9 239.1 141.8 336 236q10.9 10.5 21.5 21.4 10.6 10.8 20.9 22 10.3 11.1 20.4 22.5 10 11.4 19.7 23"/>
						<path id="Vector-40" class="s0" d="m-712.6 731.4c-1.2-120.7 68.3-219.3 178.9-348.5 9-10.5 17.7-21.1 26.9-31.3 30.6-33.9 64.6-66.2 105.8-83.5 119.8-50.8 245.3 15.1 355.6 59.1 91.8 36.7 184.7 80.7 285.2 123.3 33.6 14.2 67.3 28.4 101.4 41.9 73.9 29.2 158.2 55 230 28.7 72.6-26.7 108.4-93.9 146.3-152.1 44.1-67.9 99.1-133.5 172.8-182.6q9.8-6.6 20-12.6 10.2-6.1 20.6-11.5 10.5-5.5 21.3-10.5 10.7-4.9 21.7-9.3c55.6-22.2 116.9-33.8 177.9-28.9 73.1 5.9 140.8 34.4 203.1 64.5 126.3 60.7 237.6 131.8 334.7 220.3q10.9 10 21.6 20.2 10.7 10.2 21 20.8 10.4 10.5 20.5 21.2 10.1 10.8 20 21.9"/>
						<path id="Vector-41" class="s0" d="m-716.9 724c-1.1-115.6 71-206.2 184.5-335.8 9-10.2 17.7-20.7 26.8-30.7 30.6-33.3 64.3-65.2 104.8-82.7 118-51.3 241.3 9.3 351.5 51.1 90.7 34.5 182.9 77 283.3 118.6 33.4 13.8 66.8 27.7 100.6 40.8 73.3 28.6 156.5 54.1 227.7 29.6 72.1-24.8 108.8-88.5 147.5-143.6 45.2-64.2 100.8-126.3 174.3-172.8q9.9-6.3 20-12 10.2-5.7 20.6-10.9 10.4-5.2 21.1-9.9 10.7-4.6 21.6-8.8c55.1-21 115.9-32 176.2-27.4 72.5 5.5 139.6 32.3 201.5 60.4 125.5 56.6 236 121.9 333.4 204.8q11 9.3 21.7 18.9 10.7 9.6 21.2 19.5 10.4 9.9 20.6 20.1 10.2 10.2 20.1 20.6"/>
						<path id="Vector-42" class="s0" d="m-721.2 716.6c-1-110.6 73.7-193 190.1-323 9-10 17.6-20.3 26.7-30.2 30.5-32.8 64-64.2 103.8-81.8 116.3-51.8 237.3 3.4 347.5 43.1 89.5 32.2 181 73.1 281.3 113.8 33.1 13.4 66.3 27 99.8 39.8 72.7 27.9 154.8 53 225.4 30.3 71.5-22.9 109.2-83 148.8-135 46.2-60.5 102.4-119.1 175.8-163q9.8-5.9 20-11.3 10.1-5.4 20.5-10.3 10.3-4.9 20.9-9.4 10.6-4.4 21.4-8.2c54.8-19.9 114.9-30.3 174.7-26.1 71.7 5.1 138.3 30.3 199.7 56.4 124.8 52.5 234.5 112 332.2 189.2q11 8.7 21.8 17.7 10.8 9 21.3 18.3 10.5 9.3 20.8 18.8 10.2 9.6 20.2 19.4"/>
						<path id="Vector-43" class="s0" d="m-725.4 709.3c-1.1-105.6 76.2-180 195.6-310.3 9-9.8 17.6-20 26.7-29.7 30.4-32.3 63.6-63.2 102.8-81 114.5-52.2 233.1-2.3 343.4 35.1 88.4 30.1 179.1 69.4 279.4 109.1 32.8 13 65.7 26.2 98.9 38.8 72.1 27.2 153.1 51.9 223.2 31.1 70.9-21.1 109.6-77.6 150-126.4 47.2-56.9 104-112 177.2-153.4q9.9-5.5 20-10.6 10.1-5.1 20.4-9.7 10.3-4.6 20.9-8.8 10.5-4.1 21.2-7.7c54.4-18.7 113.9-28.6 173-24.7 71 4.8 137.1 28.4 198.1 52.4 124 48.4 233 102 330.9 173.7q11.1 8 21.9 16.4 10.8 8.4 21.4 17 10.6 8.7 21 17.6 10.3 9 20.4 18.2"/>
						<path id="Vector-44" class="s0" d="m-729.7 701.9c-1-100.6 78.8-166.9 201.1-297.5 9-9.7 17.7-19.6 26.7-29.2 30.4-31.8 63.2-62.2 101.8-80.1 112.8-52.7 229.1-8.1 339.3 27.1 87.2 27.8 177.3 65.6 277.5 104.3 32.6 12.6 65.2 25.5 98.1 37.7 71.4 26.7 151.5 51 220.9 32 70.3-19.3 110-72.2 151.3-117.9 48.2-53.2 105.6-104.8 178.7-143.6q9.8-5.2 19.9-9.9 10.1-4.8 20.4-9.1 10.2-4.4 20.7-8.2 10.4-3.9 21-7.3c54-17.5 112.9-26.8 171.4-23.2 70.3 4.3 135.9 26.3 196.5 48.3 123.2 44.3 231.4 92.1 329.6 158.1q11.1 7.5 22 15.2 10.9 7.7 21.5 15.8 10.7 8 21.1 16.4 10.4 8.3 20.6 17"/>
						<path id="Vector-45" class="s0" d="m-734 694.5c-0.9-95.5 81.4-153.8 206.7-284.7 9-9.5 17.6-19.3 26.6-28.6 30.3-31.4 62.9-61.3 100.8-79.3 111.1-53.3 225-13.9 335.3 19 86 25.7 175.3 61.9 275.5 99.6 32.4 12.2 64.7 24.7 97.4 36.7 70.7 26 149.7 49.9 218.6 32.7 69.7-17.4 110.3-66.7 152.5-109.3 49.2-49.5 107.2-97.6 180.1-133.8q9.9-4.8 19.9-9.3 10.1-4.4 20.3-8.5 10.2-4 20.6-7.6 10.4-3.6 20.9-6.8c53.5-16.3 111.9-25.1 169.8-21.8 69.5 4 134.5 24.3 194.7 44.3 122.5 40.2 229.9 82.2 328.4 142.6q11.2 6.8 22.1 13.9 10.9 7.1 21.6 14.5 10.8 7.5 21.3 15.2 10.5 7.8 20.7 15.8"/>
						<path id="Vector-46" class="s0" d="m-738.3 687.1c-0.9-90.5 83.9-140.8 212.3-272 9-9.2 17.6-18.8 26.6-28 30.2-30.8 62.5-60.3 99.8-78.5 109.3-53.7 220.8-19.6 331.2 11.1 84.8 23.6 173.4 58 273.5 94.8 32.2 11.8 64.2 24 96.6 35.7 70.1 25.3 148 48.9 216.3 33.5 69.2-15.6 110.7-61.4 153.7-100.8 50.3-45.8 108.9-90.4 181.7-124q9.8-4.5 19.9-8.6 10-4.2 20.1-7.9 10.2-3.7 20.5-7.1 10.3-3.3 20.8-6.3c53.1-15.1 110.8-23.3 168.1-20.4 68.8 3.6 133.3 22.4 193.1 40.3 121.7 36.1 228.4 72.2 327.2 127q11.1 6.2 22.1 12.7 11 6.5 21.8 13.3 10.8 6.8 21.3 13.9 10.6 7.2 21 14.6"/>
						<path id="Vector-47" class="s0" d="m-742.5 679.8c-0.9-85.5 86.3-127.9 217.7-259.3 9.1-9 17.6-18.5 26.6-27.5 30.2-30.3 62.2-59.4 98.8-77.6 107.5-54.2 216.7-25.4 327.1 3 83.6 21.5 171.6 54.3 271.7 90.1 31.8 11.4 63.6 23.3 95.7 34.7 69.5 24.6 146.3 47.8 214 34.3 68.6-13.8 111.1-56 155-92.2 51.4-42.2 110.5-83.3 183.2-114.3q9.8-4.1 19.8-8 10-3.8 20.1-7.2 10.1-3.5 20.3-6.6 10.3-3 20.6-5.8c52.8-13.9 109.9-21.6 166.6-18.9 68 3.2 132 20.3 191.4 36.2 120.9 32 226.8 62.3 325.9 111.5q11.2 5.5 22.2 11.4 11.1 5.8 21.9 12 10.9 6.2 21.5 12.8 10.7 6.5 21.1 13.3"/>
						<path id="Vector-48" class="s0" d="m-746.8 672.4c-0.8-80.4 88.8-114.9 223.3-246.5 9-8.9 17.6-18.1 26.5-27 30.2-29.8 61.8-58.4 97.8-76.8 105.8-54.6 212.6-31 323.1-5 82.4 19.5 169.7 50.6 269.7 85.4 31.6 11 63.1 22.5 94.9 33.6 68.9 24.1 144.6 46.9 211.8 35.1 68-11.9 111.4-50.5 156.2-83.6 52.4-38.5 112.1-76.1 184.6-104.5q9.8-3.8 19.8-7.3 9.9-3.5 20-6.7 10.1-3.1 20.2-5.9 10.2-2.9 20.5-5.3c52.3-12.8 108.8-19.9 164.9-17.6 67.3 2.8 130.8 18.4 189.8 32.3 120.1 27.8 225.2 52.3 324.6 95.8q11.2 4.9 22.3 10.2 11.1 5.2 22 10.8 10.9 5.6 21.7 11.5 10.7 5.9 21.3 12.2"/>
						<path id="Vector-49" class="s0" d="m-751.1 665c-0.7-75.4 91.2-101.9 228.9-233.7 9-8.7 17.6-17.8 26.4-26.4 30.2-29.3 61.5-57.4 96.9-76 104.1-54.9 208.4-36.7 319-13 81.1 17.4 167.8 46.8 267.7 80.6 31.4 10.6 62.6 21.8 94.1 32.6 68.3 23.4 142.9 45.8 209.5 35.9 67.5-10.1 111.8-45.1 157.5-75.1 53.4-34.8 113.7-68.9 186.1-94.7q9.8-3.5 19.7-6.6 9.9-3.2 19.9-6.1 10.1-2.8 20.2-5.4 10.1-2.6 20.2-4.8c51.9-11.6 107.8-18.1 163.3-16.1 66.6 2.4 129.6 16.3 188.1 28.2 119.4 23.7 223.8 42.3 323.4 80.3q11.3 4.2 22.4 8.8 11.1 4.7 22.1 9.6 11 5 21.8 10.3 10.9 5.3 21.5 11"/>
						<path id="Vector-50" class="s0" d="m-755.4 657.6c-0.7-70.3 93.6-89 234.5-220.9 9-8.5 17.5-17.4 26.4-25.9 30-28.8 61.1-56.4 95.8-75.2 102.4-55.4 204.3-42.3 314.9-21 79.9 15.4 165.9 43.2 265.8 75.9 31.1 10.2 62.1 21.1 93.4 31.6 67.6 22.7 141.1 44.8 207.1 36.7 66.9-8.2 112.2-39.7 158.8-66.5 54.4-31.2 115.3-61.8 187.5-85q9.8-3.1 19.7-5.9 9.9-2.9 19.9-5.5 9.9-2.6 19.9-4.9 10.1-2.3 20.2-4.3c51.5-10.4 106.8-16.4 161.7-14.7 65.8 2 128.3 14.4 186.4 24.2 118.6 19.6 222.2 32.4 322.1 64.8q11.3 3.6 22.5 7.6 11.2 3.9 22.2 8.3 11.1 4.3 22 9 10.9 4.8 21.6 9.8"/>
						<path id="Vector-51" class="s0" d="m-759.7 650.3c-0.6-65.4 96-76.2 240-208.3 9.1-8.2 17.6-17 26.4-25.3 30-28.2 60.8-55.4 94.8-74.3 100.7-55.9 200.1-47.9 310.9-29 78.7 13.4 164 39.4 263.9 71.1 30.8 9.9 61.6 20.3 92.5 30.5 67 22.2 139.4 43.8 204.9 37.5 66.3-6.3 112.5-34.2 160-57.9 55.4-27.5 116.9-54.6 189-75.2 25.1-7.1 51.7-13.4 79.2-18.3 51.2-9.2 105.8-14.6 160.1-13.3 65.1 1.7 127.1 12.4 184.8 20.2 117.8 15.5 220.6 22.4 320.8 49.2q11.4 3 22.6 6.3 11.2 3.4 22.3 7.1 11.2 3.7 22.2 7.8 10.9 4.2 21.8 8.6"/>
						<path id="Vector-52" class="s0" d="m-763.9 642.9c-0.6-60.3 98.2-63.4 245.5-195.5 9-8.1 17.5-16.6 26.3-24.8 30-27.7 60.5-54.5 93.8-73.5 98.9-56.3 196-53.4 306.9-37 77.4 11.5 162.1 35.7 261.9 66.4 30.6 9.5 61.1 19.6 91.7 29.5 66.4 21.5 137.7 42.7 202.6 38.3 65.7-4.5 112.9-28.9 161.2-49.4 56.5-23.9 118.6-47.5 190.5-65.4 25.1-6.2 51.6-11.7 78.9-16 50.7-8 104.8-12.9 158.5-11.8 64.3 1.2 125.7 10.3 183 16.1 117 11.4 219.1 12.5 319.6 33.6q11.4 2.4 22.7 5.1 11.3 2.7 22.4 5.8 11.2 3.2 22.3 6.7 11.1 3.5 22 7.4"/>
						<path id="Vector-53" class="s0" d="m-768.2 635.5c-0.5-55.3 100.5-50.6 251.1-182.7 9-7.9 17.5-16.3 26.3-24.2 29.9-27.3 60-53.6 92.8-72.7 97.1-56.9 191.7-58.9 302.7-45 76.2 9.5 160.3 32 260 61.6 30.4 9.1 60.6 18.9 90.9 28.5 65.8 20.8 136 41.7 200.4 39.1 65.1-2.7 113.2-23.5 162.4-40.9 57.5-20.2 120.2-40.3 192-55.6 25-5.3 51.3-10 78.4-13.6 50.3-7 103.8-11.2 156.9-10.5 63.6 0.9 124.5 8.3 181.4 12.1 116.2 7.3 217.6 2.6 318.3 18.1q11.4 1.7 22.7 3.8 11.4 2.1 22.6 4.6 11.3 2.5 22.4 5.4 11.2 2.9 22.2 6.2"/>
						<path id="Vector-54" class="s0" d="m-772.5 628.1c-0.5-50.2 102.8-37.8 256.6-169.9 9.1-7.8 17.6-15.9 26.3-23.7 29.9-26.7 59.7-52.6 91.8-71.8 95.3-57.6 187.6-64.4 298.7-53.1 74.9 7.6 158.3 28.3 258.1 57 30 8.6 60 18.1 90 27.4 65.2 20.1 134.3 40.6 198.1 39.8 64.5-0.8 113.6-18 163.7-32.2 58.5-16.6 121.8-33.2 193.4-45.9 25-4.4 51.2-8.3 78.1-11.3 49.9-5.8 102.7-9.4 155.2-9.1 63 0.5 123.3 6.4 179.8 8.1 115.4 3.2 216-7.4 317 2.5q11.5 1.1 22.8 2.6 11.4 1.4 22.7 3.3 11.4 1.9 22.6 4.2 11.2 2.3 22.4 5"/>
						<path id="Vector-55" class="s0" d="m-776.8 620.8c-0.4-45.3 105-25.2 262.2-157.3 9-7.5 17.5-15.5 26.2-23.1 29.9-26.2 59.4-51.6 90.8-71 93.6-58 183.4-69.7 294.7-61 73.6 5.7 156.4 24.6 256.1 52.2 29.8 8.2 59.5 17.3 89.3 26.3 64.5 19.6 132.5 39.7 195.7 40.7 64 1 114-12.6 165-23.7 59.5-12.9 123.4-26 194.9-36.1 25-3.5 51-6.6 77.7-9 49.4-4.6 101.7-7.7 153.6-7.6 62.2 0.1 122 4.3 178.1 4.1 114.6-1 214.4-17.4 315.7-13.1 30.3 1.2 60.6 4.2 91 10.1"/>
						<path id="Vector-56" class="s0" d="m-781 613.4c-0.4-40.2 107.2-12.5 267.7-144.5 9-7.4 17.5-15.1 26.1-22.6 29.9-25.6 59-50.7 89.8-70.1 91.8-58.5 179.2-75.1 290.6-69.1 72.4 3.9 154.5 20.9 254.2 47.5 29.6 7.9 59 16.6 88.5 25.3 63.9 18.9 130.9 38.6 193.5 41.5 63.4 2.8 114.4-7.2 166.2-15.2 60.6-9.2 125-18.8 196.3-26.3 25-2.6 50.8-4.9 77.3-6.7 49.1-3.4 100.7-5.9 152-6.2 61.5-0.3 120.8 2.4 176.4 0.1 113.9-5.1 213-27.3 314.5-28.7 30.4-0.4 60.8 0.9 91.6 5.3"/>
						<path id="Vector-57" class="s0" d="m-785.3 606c-0.4-35.2 109.3 0.1 273.3-131.7 8.9-7.2 17.5-14.8 26.1-22 29.8-25.1 58.6-49.8 88.8-69.4 90-58.9 175-80.4 286.5-77.1 71.1 2.1 152.6 17.3 252.2 42.8 29.3 7.5 58.5 15.8 87.7 24.3 63.3 18.2 129.2 37.5 191.2 42.2 62.8 4.7 114.8-1.8 167.5-6.5 61.6-5.6 126.6-11.7 197.8-16.6 24.9-1.7 50.6-3.2 76.9-4.4 48.6-2.2 99.7-4.2 150.4-4.7 60.7-0.7 119.5 0.3 174.7-4 113.1-9.2 211.4-37.2 313.3-44.2 30.4-2.1 61-2.5 92 0.3"/>
						<path id="Vector-58" class="s0" d="m-789.6 598.6c-0.3-30.1 111.5 12.6 278.8-118.9 9-7.1 17.5-14.4 26.1-21.5 29.8-24.6 58.3-48.8 87.8-68.5 88.3-59.5 170.9-85.6 282.5-85.1 69.9 0.3 150.7 13.6 250.3 38 29 7.1 57.9 15.1 86.8 23.2 62.7 17.6 127.5 36.6 189 43.1 62.2 6.5 115.1 3.6 168.6 2 62.7-1.9 128.3-4.5 199.4-6.8 24.8-0.8 50.4-1.5 76.4-2.1 48.3-1 98.7-2.4 148.8-3.3 60-1.1 118.2-1.7 173.1-8 112.3-13.3 209.8-47.2 312-59.8 30.5-3.7 61.3-5.8 92.5-4.6"/>
						<path id="Vector-59" class="s0" d="m-793.9 591.3c-0.2-25.2 113.6 25 284.4-106.2 8.9-6.9 17.5-14 26-21 29.8-24.1 57.9-47.8 86.8-67.7 86.6-59.9 166.7-90.8 278.4-93.1 68.7-1.4 148.8 9.9 248.4 33.3 28.8 6.8 57.4 14.4 86 22.2 62.1 17 125.8 35.5 186.7 43.8 61.6 8.5 115.5 9.1 169.9 10.6 63.7 1.8 129.9 2.7 200.8 3 24.8 0.1 50.2 0.2 76.1 0.3 47.8 0.1 97.7-0.7 147.2-2 59.2-1.4 116.9-3.6 171.3-12 111.6-17.4 208.4-57.1 310.8-75.3 30.5-5.5 61.5-9.1 93.1-9.6"/>
						<path id="Vector-60" class="s0" d="m-798.2 583.9c-0.2-20.1 115.7 37.5 290-93.5 8.9-6.7 17.5-13.6 25.9-20.4 29.7-23.5 57.6-46.8 85.8-66.8 84.9-60.4 162.6-95.9 274.4-101.1 67.5-3.2 146.9 6.2 246.4 28.5 28.5 6.4 56.9 13.7 85.3 21.2 61.4 16.3 124 34.5 184.3 44.6 61.1 10.3 115.9 14.5 171.2 19.1 64.7 5.5 131.5 9.9 202.3 12.8q37.1 1.5 75.7 2.6c47.4 1.3 96.6 1 145.5-0.5 58.5-1.9 115.7-5.7 169.7-16.1 110.8-21.5 206.8-67.1 309.5-90.9 30.6-7.1 61.8-12.4 93.6-14.5"/>
						<path id="Vector-61" class="s0" d="m-802.4 576.5c-0.2-15.1 117.6 49.9 295.4-80.7 8.9-6.5 17.5-13.2 26-19.8 29.6-23.1 57.2-45.9 84.8-66.1 83-60.8 158.5-100.9 270.3-109.1 66.2-4.8 144.9 2.6 244.4 23.8 28.3 6 56.4 12.9 84.5 20.1 60.8 15.7 122.3 33.5 182.1 45.5 60.5 12.1 116.2 19.9 172.4 27.7 65.7 9.1 133.1 17 203.7 22.5q37 2.9 75.3 4.9c47 2.5 95.6 2.8 143.9 0.9 57.8-2.2 114.5-7.6 168.1-20.1 110-25.6 205.2-77 308.2-106.4 30.7-8.8 62.1-15.8 94.2-19.4"/>
						<path id="Vector-62" class="s0" d="m-806.7 569.1c-0.1-10 119.6 62.2 301-67.9 8.9-6.4 17.5-12.9 25.9-19.3 29.6-22.5 56.9-44.9 83.8-65.2 81.3-61.4 154.4-106 266.2-117.2 65.1-6.5 143.1-0.9 242.6 19.1 28 5.7 55.8 12.2 83.6 19.1 60.1 15.1 120.6 32.4 179.8 46.2 59.9 14 116.6 25.4 173.7 36.3 66.7 12.8 134.7 24.2 205.2 32.3q36.9 4.2 74.9 7.2 17.7 1.4 35.5 2.3 17.8 0.8 35.6 1.1 17.8 0.3 35.6 0 17.8-0.3 35.6-1.1c57-2.6 113.2-9.6 166.4-24 109.1-29.8 203.6-87 306.9-122.1 30.8-10.4 62.3-19.1 94.7-24.3"/>
						<path id="Vector-63" class="s0" d="m-811 561.8c0-5 121.6 74.4 306.6-55.2 8.9-6.2 17.4-12.5 25.8-18.8 29.6-22 56.6-43.9 82.8-64.3 79.6-61.9 150.4-110.9 262.2-125.2 63.9-8.2 141.2-4.5 240.6 14.3 27.8 5.4 55.3 11.4 82.8 18.1 59.5 14.4 118.9 31.4 177.5 47 59.4 15.8 117 30.7 174.9 44.8 67.8 16.5 136.4 31.4 206.7 42.1q36.9 5.6 74.5 9.6 17.6 1.8 35.1 3 17.6 1.1 35.2 1.6 17.6 0.4 35.2 0.2 17.6-0.2 35.2-1.1c56.3-3 112-11.7 164.7-28.1 108.4-33.9 202.2-97 305.7-137.6 30.9-12.2 62.6-22.5 95.2-29.3"/>
						<path id="Vector-64" class="s0" d="m-815.3 554.4c0 0 123.6 86.5 312.2-42.4 188.5-129 253.4-268.2 604.3-205.4 242.5 43.5 471.2 150 715.7 182 100.6 13.1 206 6.9 302.1-27 107.6-38 200.6-106.9 304.4-153.2 31-13.8 62.8-25.8 95.8-34.2"/>
					</g>
				</g>
			</g>
		</g>
	</g>
</svg>