<svg version="1.2" xmlns="http://www.w3.org/2000/svg" viewBox="0 0 1920 586" width="1920" height="586">
	<title>waves 2-svg</title>
	<defs>
		<clipPath clipPathUnits="userSpaceOnUse" id="cp1">
			<path d="m0-6h1920v710h-1920z"/>
		</clipPath>
	</defs>
	<style>
		.s0 { fill: none;stroke: #4bc1db;stroke-width: .9 } 
	</style>
	<g id="Clip-Path: waves_2" clip-path="url(#cp1)">
		<g id="waves_2">
			<g id="Wave_2" style="opacity: .3">
				<g id="Group">
					<path id="Vector" class="s0" d="m2078.8 593.8c20.2-33.5 18.1-76.9 3.3-113.2-14.8-36.3-40.6-66.8-67-95.7-34.8-38.4-72.3-76.1-119.2-98-65.4-30.5-141.4-26.9-212.8-16.3-126.8 18.6-250 56.9-369.8 102.4-128.4 48.8-259.4 107.2-396.5 99.4-123.1-7-207.1-67.2-296-144.7-82.9-72.4-151.4-165.7-254.3-213-135-62.1-301.1-30.1-421.2 57.3-120.1 87.4-198.3 222.9-243 364.5"/>
					<path id="Vector-2" class="s0" d="m2090.5 579c18.4-29 13-67.7-4.2-101.8-17.1-33.9-43.9-63.6-71.5-90.9-36.3-35.9-74.9-72.1-123.1-92.6-68.4-29.2-147.7-26.4-221.8-17.3-126.4 15.6-248.8 51.6-367.6 94.3-126.4 45.4-254.8 101.6-389.6 92.9-123-7.9-208.6-66.1-298.4-139.5-84-68.5-153.8-155.5-255.7-198.7-133.4-56.6-296-23.1-415.7 62.8-120.2 86.1-200.4 215.5-247.8 353.5"/>
					<path id="Vector-3" class="s0" d="m2102.2 564.1c16.5-24.3 8-58.4-11.7-90.2-19.4-31.5-47.2-60.5-76.1-86.1-37.8-33.5-77.5-68.2-126.8-87.4-71.6-27.7-154.1-25.9-231-18.1-125.8 12.6-247.6 46.2-365.4 86.1-124.3 42-250.2 95.9-382.6 86.4-122.9-8.8-209.9-65.1-300.8-134.3-84.9-64.7-156.1-145.3-257.2-184.5-131.6-51-290.8-15.9-410.2 68.5-120.3 84.7-202.4 208.1-252.5 342.4"/>
					<path id="Vector-4" class="s0" d="m2113.8 549.3c14.7-19.8 3.1-49-19.1-78.8-21.5-29-50.5-57.4-80.6-81.2-39.3-31.1-80.1-64.3-130.7-82.1-74.7-26.3-160.4-25.4-240.1-19.1-125.1 9.9-246.3 40.9-363.2 77.9-122.2 38.8-245.5 90.4-375.6 80.1-122.7-9.7-211.4-64.2-303.2-129.2-86-60.9-158.3-135.1-258.6-170.2-129.9-45.5-285.8-8.8-404.7 74-120.4 83.4-204.5 200.7-257.3 331.4"/>
					<path id="Vector-5" class="s0" d="m2125.5 534.4c12.8-15.2-1.7-39.5-26.5-67.3-23.7-26.5-53.8-54.2-85.3-76.3-40.6-28.7-82.7-60.4-134.4-76.9-77.9-24.8-166.8-24.8-249.3-19.9-124.4 7.2-244.9 35.5-360.9 69.7-120.1 35.4-241 84.7-368.7 73.6-122.6-10.6-212.8-63.1-305.6-124-87-57.1-160.5-125-260.1-156-128.1-40-280.6-1.7-399.1 79.6-120.5 82.1-206.6 193.3-262.1 320.4"/>
					<path id="Vector-6" class="s0" d="m2137.2 519.6c10.9-10.6-6.4-30-34-55.9-25.7-23.9-57.1-51-89.8-71.5-42.1-26.2-85.5-56.3-138.3-71.5-81-23.4-173-24.2-258.3-20.9-123.8 4.8-243.7 30.2-358.8 61.5-117.9 32.2-236.4 79.1-361.7 67.3-122.5-11.6-214.3-62.2-308-118.9-88.1-53.3-162.7-114.8-261.5-141.8-126.3-34.4-275.3 5.8-393.6 85.3-120.5 80.9-208.7 185.9-266.9 309.3"/>
					<path id="Vector-7" class="s0" d="m2148.8 504.7c9.2-6-10.9-20.5-41.4-44.3-27.5-21.5-60.3-48-94.4-66.7-43.4-23.8-88.1-52.3-142-66.3-84.3-21.8-179.3-23.5-267.5-21.7-123.1 2.4-242.3 24.8-356.6 53.3-115.7 28.9-231.7 73.4-354.7 60.8-122.4-12.5-215.7-61.1-310.4-113.6-89.2-49.5-164.8-104.7-263-127.6-124.3-29-270.1 12.9-388.1 90.8-120.5 79.6-210.8 178.5-271.6 298.4"/>
					<path id="Vector-8" class="s0" d="m2160.5 489.9c7.3-1.5-15.3-11-48.9-32.9-29.2-19-63.4-44.8-99-61.8-44.7-21.4-90.8-48.3-145.8-61-87.5-20.3-185.5-22.8-276.6-22.7-122.3 0.1-240.8 19.5-354.3 45.2-113.6 25.6-227.2 67.7-347.8 54.4-122.3-13.5-217.2-60.1-312.8-108.5-90.2-45.7-166.9-94.6-264.4-113.4-122.4-23.5-265.1 20.1-382.6 96.4-120.6 78.4-212.9 171.2-276.4 287.4"/>
					<path id="Vector-9" class="s0" d="m2172.2 475c5.4 3.2-19.7-1.6-56.4-21.4-30.8-16.6-66.6-41.7-103.5-56.9-46-19.1-93.5-44.3-149.6-55.8-90.8-18.6-191.7-22-285.7-23.6-121.6-2-239.5 14.3-352.2 37-111.3 22.4-222.6 62-340.8 48-122.2-14.5-218.7-59.1-315.2-103.3-91.3-41.9-168.9-84.5-265.8-99.1-120.4-18.2-259.9 27.2-377.1 102-120.7 77-215 163.7-281.2 276.3"/>
					<path id="Vector-10" class="s0" d="m2183.8 460.2c3.6 7.7-23.9 7.7-63.8-10-32.4-14.3-69.8-38.6-108.1-52.1-47.3-16.6-96.2-40.1-153.4-50.4-94-17-197.9-21.2-294.8-24.5-120.8-4.1-238 8.9-350 28.8-109 19.2-218 56.2-333.8 41.5-122.1-15.4-220.2-58-317.6-98.1-92.4-38.1-170.8-74.4-267.3-84.9-118.2-12.8-254.8 34.4-371.5 107.6-120.8 75.7-217.1 156.4-286 265.3"/>
					<path id="Vector-11" class="s0" d="m2195.5 445.4c1.7 12.2-28.2 16.9-71.3 1.5-33.9-12.2-72.9-35.5-112.6-47.3-48.6-14.3-99-36-157.3-45.2-97.2-15.3-204-20.3-303.9-25.4-120-6.1-236.4 3.8-347.7 20.6-106.7 16.2-213.4 50.5-326.9 35.2-122-16.5-221.7-57-320-93-93.5-34.2-172.7-64.4-268.7-70.6-116.1-7.6-249.7 41.5-366.1 113.1-120.8 74.4-219.1 149-290.7 254.3"/>
					<path id="Vector-12" class="s0" d="m2207.2 430.5c-0.1 16.9-32.4 26-78.8 13-35.4-10-76-32.5-117.2-42.4-49.8-12.1-101.7-31.9-161-39.9-100.6-13.7-210.3-19.4-313-26.3-119.3-8-235-1.5-345.6 12.4-104.4 13.1-208.8 44.7-319.9 28.7-121.9-17.5-223.2-55.9-322.4-87.8-94.7-30.3-174.6-54.4-270.2-56.4-113.9-2.3-244.5 48.7-360.5 118.8-120.9 73-221.2 141.6-295.5 243.2"/>
					<path id="Vector-13" class="s0" d="m2218.8 415.7c-1.9 21.4-36.5 35-86.1 24.4-37-7.9-79.2-29.4-121.8-37.5-51.1-9.8-104.4-27.7-164.9-34.7-103.8-11.9-216.4-18.4-322.1-27.2-118.5-9.8-233.4-6.6-343.3 4.2-102.1 10.1-204.3 38.9-313 22.4-121.8-18.6-224.8-54.9-324.8-82.6-95.8-26.6-176.4-44.5-271.6-42.2-111.7 2.7-239.4 55.8-355 124.3-121 71.7-223.3 134.2-300.3 232.2"/>
					<path id="Vector-14" class="s0" d="m2230.5 400.8c-3.8 26-40.7 44-93.6 35.9-38.5-5.9-82.4-26.3-126.4-32.6-52.3-7.6-107.1-23.6-168.6-29.4-107.1-10.2-222.7-17.4-331.3-28.1-117.7-11.6-231.8-11.8-341.1-4-99.6 7.1-199.6 33-306 15.9-121.7-19.6-226.3-53.8-327.2-77.4-96.9-22.7-178.2-34.7-273.1-28-109.3 7.7-234.2 63-349.4 130-121.1 70.3-225.4 126.8-305.1 221.1"/>
					<path id="Vector-15" class="s0" d="m2242.2 386c-5.7 30.6-45 52.8-101.1 47.3-40-3.9-85.5-23.3-130.9-27.8-53.6-5.2-109.9-19.3-172.5-24.1-110.4-8.3-228.8-16.2-340.4-29q-42.1-4.8-84.4-8-42.4-3.2-84.8-4.7-42.4-1.5-84.8-1.4-42.5 0.1-84.9 1.9c-97.2 4.2-195 27.2-299 9.5-121.6-20.6-227.8-52.7-329.6-72.2-98.1-18.8-180-24.9-274.5-13.7-107.1 12.6-229.1 70.1-344 135.5-121.2 69-227.5 119.4-309.8 210.2"/>
					<path id="Vector-16" class="s0" d="m2253.8 371.1c-7.5 35.2-49.2 61.7-108.5 58.9-41.6-2-88.6-20.4-135.5-23-54.8-3-112.6-15.2-176.2-18.8-113.7-6.6-235.1-15.1-349.5-29.9q-174.4-22.5-336.7-20.4c-94.8 1.4-190.5 21.3-292.1 3.1-121.5-21.8-229.4-51.6-332-67.1-99.2-14.9-181.8-15.2-276 0.5-104.8 17.5-224 77.3-338.4 141.1-121.3 67.7-229.6 112-314.6 199.2"/>
					<path id="Vector-17" class="s0" d="m2265.5 356.3c-9.3 39.7-53.5 70.4-116 70.3-43.2-0.1-91.7-17.4-140-18.1-56.2-0.9-115.4-11-180.1-13.6-116.9-4.7-241.3-13.9-358.6-30.8-115.5-16.6-226.9-26.9-334.5-28.5-92.4-1.5-185.8 15.4-285-3.3-121.5-23-231-50.6-334.5-62-100.3-11-183.6-5.5-277.4 14.8-102.5 22.2-218.9 84.4-332.9 146.7-121.4 66.3-231.7 104.6-319.4 188.1"/>
					<path id="Vector-18" class="s0" d="m2277.2 341.4c-11.2 44.4-57.9 79.2-123.5 81.8-44.8 1.8-94.8-14.4-144.6-13.2-57.4 1.3-118-6.8-183.8-8.3-120.3-2.9-247.6-12.7-367.8-31.7-114.8-18.2-225.2-31.8-332.3-36.8-89.9-4.2-181.2 9.5-278-9.7-121.4-24.1-232.6-49.4-336.9-56.8-101.5-7.1-185.4 4-278.9 29-100.2 26.8-213.7 91.5-327.3 152.3-121.5 65-233.8 97.2-324.2 177.1"/>
					<path id="Vector-19" class="s0" d="m2288.8 326.6c-13 48.9-62.1 87.8-130.9 93.2-46.4 3.7-98-11.4-149.2-8.4-58.6 3.6-120.7-2.5-187.6-3-123.5-0.9-253.8-11.3-376.8-32.6-114.1-19.7-223.6-36.6-330.1-44.9-87.5-6.9-176.6 3.5-271.1-16.2-121.3-25.2-234.1-48.2-339.3-51.5-102.6-3.2-187.2 13.4-280.3 43.2-98 31.3-208.7 98.6-321.9 157.8-121.6 63.7-235.8 89.9-329 166.1"/>
					<path id="Vector-20" class="s0" d="m2300.5 311.7c-14.9 53.5-66.6 96.5-138.4 104.8-48.1 5.5-101.1-8.6-153.7-3.6-60 5.7-123.5 1.7-191.4 2.3-126.8 1-260.1-10-386-33.5-113.4-21.2-221.9-41.4-327.9-53.2-85-9.4-172-2.4-264.1-22.5-121.2-26.5-235.7-47.2-341.7-46.4-103.8 0.7-189.1 22.7-281.7 57.4-95.9 35.8-203.6 105.8-316.4 163.5-121.7 62.3-237.9 82.4-333.8 155"/>
					<path id="Vector-21" class="s0" d="m2312.2 296.9c-16.8 58.1-71 105.1-145.8 116.2-49.9 7.4-104.4-5.6-158.4 1.3-61.2 7.8-126.2 6-195.2 7.5-130 2.9-266.3-8.5-395.1-34.4-112.7-22.6-220.3-46-325.7-61.3-82.5-12-167.3-8.4-257.1-29-121-27.7-237.2-45.9-344.1-41.2-104.9 4.7-191 32.1-283.2 71.7-93.7 40.2-198.4 112.8-310.8 169-121.9 61-240 75.1-338.6 144"/>
					<path id="Vector-22" class="s0" d="m2323.8 282c-18.5 62.7-75.4 113.8-153.2 127.7-51.6 9.3-107.5-2.7-162.9 6.2-62.6 10-128.9 10.2-199.1 12.8-133.2 4.8-272.6-7-404.2-35.3-112-24.1-218.6-50.7-323.4-69.5-80.2-14.5-162.8-14.5-250.2-35.4-120.9-29-238.7-44.8-346.5-36.1-106 8.6-193 41.3-284.6 85.9-91.6 44.6-193.4 120-305.3 174.7-122 59.5-242.1 67.6-343.4 133"/>
					<path id="Vector-23" class="s0" d="m2335.5 267.2c-20.4 67.2-79.9 122.3-160.7 139.1-53.3 11.1-110.7 0.3-167.5 11-63.8 12.2-131.6 14.6-202.8 18.1q-52 2.5-104 1.5-52.1-1-103.9-5.5-51.8-4.6-103.3-12.6-51.4-8.1-102.1-19.6c-111.4-25.4-217.1-55.1-321.3-77.7-77.7-16.8-158.1-20.4-243.2-41.8-120.8-30.3-240.2-43.6-348.9-30.9-107.2 12.6-195.1 50.5-286.1 100.1-89.6 48.9-188.2 127.1-299.8 180.3-122.1 58.2-244.2 60.3-348.1 122"/>
					<path id="Vector-24" class="s0" d="m2347.2 252.3c-22.3 71.9-84.4 131-168.2 150.7-55.1 12.9-113.9 3.1-172 15.8-65.2 14.3-134.3 18.8-206.7 23.4-35.4 2.1-70.9 3-106.3 2.5-35.5-0.4-70.9-2.2-106.3-5.3-35.3-3.1-70.5-7.6-105.5-13.3-35-5.7-69.8-12.7-104.3-21-110.7-26.9-215.5-59.6-319.1-85.9-75.3-19.2-153.4-26.5-236.2-48.3-120.6-31.6-241.8-42.4-351.3-25.6-108.3 16.5-197.2 59.5-287.5 114.3-87.7 53.1-183.2 134.2-294.3 185.8-122.2 56.8-246.3 52.9-352.9 111"/>
					<path id="Vector-25" class="s0" d="m2358.9 237.5c-24.2 76.4-89 139.5-175.7 162.1-56.9 14.8-117.1 6-176.6 20.7-66.5 16.4-137 23.1-210.4 28.6-143 10.8-291.7-2.2-431.6-38-110.1-28.2-214-63.8-316.8-94.1-73.1-21.5-148.8-32.5-229.3-54.6-120.4-33-243.3-41.3-353.7-20.5-109.4 20.5-199.4 68.6-289 128.5-85.7 57.4-178 141.3-288.7 191.5-122.4 55.4-248.4 45.5-357.7 99.9"/>
					<path id="Vector-26" class="s0" d="m2370.5 222.6c-26 81.1-93.4 148.2-183.1 173.6-58.6 16.6-120.3 8.9-181.1 25.6-67.9 18.5-139.8 27.3-214.3 33.9-146.2 12.8-298.1-0.5-440.6-38.9-109.6-29.5-212.6-68.1-314.7-102.3-70.7-23.7-144.1-38.7-222.3-61.1-120.2-34.4-244.8-40-356.1-15.3-110.5 24.5-201.7 77.7-290.4 142.8-84 61.6-173 148.3-283.2 197-122.5 54-250.5 38.1-362.5 88.9"/>
					<path id="Vector-27" class="s0" d="m2382.2 207.8c-27.8 85.6-98 156.7-190.6 185-60.4 18.5-123.5 11.9-185.7 30.5-69.2 20.6-142.4 31.6-218 39.1-37.7 3.7-75.5 5.6-113.4 5.8-37.8 0.2-75.7-1.4-113.4-4.7-37.7-3.4-75.2-8.4-112.4-15.3-37.3-6.8-74.2-15.3-110.6-25.6-109-30.8-211.2-72.1-312.5-110.4-68.5-26-139.4-44.8-215.3-67.5-120.1-35.9-246.3-38.9-358.5-10.2-111.6 28.5-204.1 86.7-291.9 157-82.2 65.9-167.8 155.5-277.7 202.6-122.6 52.7-252.5 30.8-367.2 77.9"/>
					<path id="Vector-28" class="s0" d="m2393.9 192.9c-29.7 90.2-102.6 165.4-198.1 196.6-62.2 20.3-126.7 14.7-190.3 35.2-70.5 22.8-145 36-221.8 44.5-152.6 16.9-311 3.1-458.9-40.7-108.4-32.1-209.9-76.2-310.2-118.7-66.4-28.1-134.8-50.9-208.4-73.9-119.8-37.4-247.8-37.6-360.9-5-112.7 32.5-206.5 95.8-293.3 171.3-80.6 70.1-162.8 162.5-272.2 208.2-122.7 51.2-254.6 23.3-372 66.8"/>
					<path id="Vector-29" class="s0" d="m2405.5 178.1c-31.5 94.8-107.1 173.9-205.4 208-64.1 22.2-130 17.6-194.9 40.1-71.9 24.9-147.8 40.2-225.6 49.7-155.9 19-317.6 5-468-41.6-107.9-33.4-208.8-80.1-308.1-126.8q-24.5-11.7-49.4-22.5-24.8-10.8-50-20.9-25.2-10-50.7-19.3-25.5-9.2-51.3-17.6c-119.6-39-249.2-36.5-363.3 0.1-113.8 36.5-209 104.8-294.7 185.5-79.1 74.4-157.8 169.4-266.7 213.8-122.9 49.6-256.7 15.9-376.8 55.8"/>
					<path id="Vector-30" class="s0" d="m2417.2 163.2c-33.4 99.4-111.7 182.6-212.9 219.5-66 24.1-133.2 20.5-199.5 45-73.2 27-150.4 44.5-229.4 55-159.1 21-324 6.9-477.1-42.5-107.4-34.7-207.7-84-305.9-135.1-62.1-32.3-125.4-63.2-194.4-86.7-119.3-40.6-250.6-35-365.7 5.4-114.8 40.7-211.6 113.8-296.2 199.7-77.5 78.6-152.6 176.5-261.2 219.3-123 48.3-258.7 8.6-381.5 44.9"/>
					<path id="Vector-31" class="s0" d="m2428.9 148.4c-35.3 103.9-116.3 191.2-220.4 230.9-67.8 25.9-136.4 23.3-204 49.9-74.7 29-153.1 48.9-233.2 60.2-162.3 23.4-330.7 8.9-486.3-43.4-106.8-35.9-206.8-87.8-303.6-143.2-60.2-34.5-120.7-69.4-187.5-93.2-119-42.2-252.1-33.9-368.1 10.6-115.9 44.6-214.2 122.8-297.6 213.9-76 83-147.5 183.6-255.7 225-123.1 46.9-260.9 1.1-386.3 33.8"/>
					<path id="Vector-32" class="s0" d="m2440.5 133.5c-37 108.6-120.9 199.8-227.8 242.5-69.6 27.7-139.6 26.3-208.6 54.6q-28.5 11.7-57.7 21.7-29.1 10-58.8 18.2-29.7 8.2-59.9 14.6-30.1 6.5-60.6 11.1c-165.5 25.2-337.2 10.9-495.4-44.3-106.3-37.2-205.9-91.6-301.4-151.5-58.3-36.5-115.9-75.6-180.5-99.5-118.6-44-253.6-32.8-370.6 15.7-116.9 48.5-216.8 131.9-299 228.2-74.6 87.3-142.4 190.7-250.1 230.5-123.2 45.5-263-6.2-391.1 22.8"/>
				</g>
				<g id="Group-2">
					<path id="Vector-33" class="s0" d="m1946.5 479.5c-12.8-138-75.8-270.8-174.5-368.2-28.1-27.7-60.4-53.3-98.7-62.7-110.6-27.4-216 68.1-300.8 124.9-102.4 68.6-203.3 139.8-311 199.9-60.5 33.7-132.5 64.4-197 39.1-65.3-25.6-96.5-97.6-128.8-159.9-37.7-72.5-86.3-141.1-152.3-189.3-66-48.2-151.1-74.2-231-57-62.6 13.4-117 51.5-166 92.7-32.1 27-62.8 55.8-91.8 86.2-29.1 30.4-56.5 62.4-82.1 95.7-25.6 33.4-49.3 68.1-71.2 104-21.8 35.9-41.7 73-59.5 111.1"/>
					<path id="Vector-34" class="s0" d="m1949.4 473.2c-12.5-133.6-76.7-259.2-177.2-356.6-28.1-27.2-60-52.5-97.7-62.1-109.4-27.9-213.3 63-297.9 117.8-90.3 58.5-179.4 120-274 174.6q-17.5 10.1-35.2 19.8c-60 33.1-131.1 63.4-195 39.5-64.6-24.2-96.3-93.4-129-153-38.2-69.4-87-135.1-152.4-181.2-65.7-46-149.9-70.6-228.9-53.7-53.8 11.4-101.5 40.6-145 73.9-6.7 5.1-13.3 10.4-19.9 15.7-130.4 104.5-234.7 230.4-303.6 377.8"/>
					<path id="Vector-35" class="s0" d="m1952.2 466.9c-12-129.1-77.4-247.7-179.8-345-28.1-26.6-59.6-51.7-96.8-61.4-108-28.5-210.6 57.7-295 110.6-89.3 55.9-177.6 115.9-272.4 169.5q-17.3 9.9-34.8 19.5c-59.6 32.5-129.9 62.3-193 39.7-64.1-22.8-96.2-88.9-129.3-146-38.7-66.3-87.6-129.1-152.6-173-65.4-43.8-148.6-67.1-226.8-50.6-53.2 11.3-100.6 39.5-143.9 71.6-6.7 4.9-13.3 10.1-19.9 15.1-132 100.7-235.9 216-302.5 358.5"/>
					<path id="Vector-36" class="s0" d="m1955 460.6c-11.6-124.7-78.1-236.1-182.4-333.4-28-26.1-59.2-50.9-95.9-60.8-106.7-29-207.8 52.6-292 103.5-88.4 53.4-176.1 111.5-270.8 164.5-11.5 6.4-23 12.8-34.6 19.1-59.1 31.8-128.5 61.2-191 40-63.4-21.4-95.9-84.7-129.5-139.1-39.1-63.3-88.1-123.3-152.8-164.9-64.9-41.8-147.3-63.5-224.6-47.3-52.7 11.1-99.8 38.4-142.9 69.2-6.7 4.7-13.2 9.7-19.8 14.5-133.8 96.9-237.2 201.7-301.5 339.2"/>
					<path id="Vector-37" class="s0" d="m1957.9 454.3c-11.2-120.2-78.9-224.6-185.1-321.8-28-25.6-58.8-50.1-95-60.1-105.3-29.6-205 47.3-289.1 96.2-87.4 51-174.4 107.4-269.1 159.6-11.4 6.3-22.8 12.5-34.3 18.7-58.7 31.2-127.2 60.1-189.1 40.3-62.8-20-95.7-80.4-129.7-132.2-39.6-60.3-88.8-117.4-153-156.8-64.6-39.6-146-60-222.4-44-52.3 10.8-99 37.2-142 66.7-6.6 4.6-13.1 9.4-19.6 13.9-135.7 93.3-238.5 187.4-300.5 320"/>
					<path id="Vector-38" class="s0" d="m1960.7 448c-10.8-115.8-79.6-213-187.6-310.2-28-25.1-58.5-49.2-94.1-59.4-104.1-30.2-202.3 42.1-286.2 89-86.5 48.5-172.8 103.2-267.5 154.5-11.3 6.2-22.7 12.3-34.1 18.3-58.2 30.6-125.8 59-187.1 40.6-62.2-18.6-95.5-76.1-129.8-125.2-40.1-57.3-89.5-111.4-153.2-148.6-64.3-37.5-144.7-56.5-220.3-40.9-51.8 10.7-98.3 36.1-141 64.4-6.6 4.4-13 9-19.6 13.3-137.6 89.5-239.7 173-299.4 300.8"/>
					<path id="Vector-39" class="s0" d="m1963.6 441.7c-10.4-111.4-80.4-201.5-190.3-298.6-27.9-24.7-58.1-48.4-93.2-58.8-102.7-30.7-199.5 36.9-283.2 81.9-85.6 45.9-171.2 99-265.9 149.5-11.3 6-22.5 12-33.8 17.9-57.8 30-124.6 57.9-185.1 40.9-61.6-17.2-95.3-71.8-130.1-118.3-40.6-54.2-90.1-105.5-153.4-140.5-64-35.4-143.4-52.9-218.1-37.6-51.3 10.5-97.5 35-140 62-6.6 4.2-13 8.6-19.5 12.7-139.6 85.7-240.9 158.7-298.4 281.5"/>
					<path id="Vector-40" class="s0" d="m1966.4 435.3c-9.9-106.8-81-189.9-192.9-286.9-27.9-24.2-57.7-47.6-92.3-58.1-101.4-31-196.7 31.7-280.2 74.7-84.6 43.4-169.5 94.8-264.3 144.5-11.2 5.8-22.3 11.7-33.6 17.5-57.2 29.3-123.2 56.8-183.1 41.1-60.9-15.7-95.1-67.4-130.3-111.3-41.1-51.2-90.7-99.6-153.6-132.4-63.6-33.2-142.1-49.4-215.9-34.3-50.8 10.3-96.6 33.9-139 59.6-6.6 4-12.9 8.2-19.5 12-141.6 82-242.1 144.4-297.2 262.3"/>
					<path id="Vector-41" class="s0" d="m1969.3 429c-9.6-102.4-81.8-178.4-195.6-275.3-27.8-23.7-57.3-46.7-91.3-57.5-100.2-31.5-193.9 26.6-277.4 67.5-83.6 41.1-167.8 90.7-262.6 139.5-11.1 5.7-22.2 11.5-33.3 17.1-56.8 28.7-121.9 55.8-181.2 41.5-60.3-14.4-94.9-63.2-130.5-104.4-41.6-48.2-91.3-93.6-153.7-124.3-63.3-31-140.9-45.8-213.8-31.1-50.4 10.1-95.9 32.9-138 57.2-6.6 3.8-12.9 7.9-19.4 11.5-143.8 78.1-243.4 130-296.2 243"/>
					<path id="Vector-42" class="s0" d="m1972.1 422.7c-9.1-97.9-82.4-166.9-198.1-263.7-27.8-23.2-57-45.9-90.5-56.8-98.8-32.1-191.1 21.3-274.4 60.3-82.6 38.6-166.2 86.5-261 134.5-11 5.6-22 11.2-33 16.7-56.4 28.1-120.6 54.7-179.2 41.7-59.8-12.9-94.7-58.8-130.7-97.4-42.2-45.2-92.1-87.7-154-116.1-63-29-139.5-42.3-211.6-27.9-49.9 9.9-95.1 31.7-137 54.8-6.6 3.6-12.8 7.5-19.3 10.8-146 74.3-244.7 115.8-295.2 223.8"/>
					<path id="Vector-43" class="s0" d="m1975 416.4c-8.8-93.5-83.1-155.4-200.8-252.1-27.7-22.7-56.6-45.1-89.6-56.1-97.5-32.6-188.2 16.2-271.4 53.1-81.6 36.1-164.5 82.3-259.5 129.5-10.9 5.4-21.7 10.9-32.7 16.3-55.9 27.4-119.3 53.6-177.2 42-59.1-11.5-94.5-54.5-130.9-90.5-42.7-42.1-92.7-81.8-154.2-108-62.7-26.8-138.2-38.7-209.5-24.6-49.3 9.7-94.2 30.6-135.9 52.4-6.5 3.4-12.8 7.1-19.3 10.2-148.2 70.4-245.9 101.4-294.1 204.6"/>
					<path id="Vector-44" class="s0" d="m1977.8 410.1c-8.3-89.1-83.6-144-203.4-240.5-27.6-22.3-56.2-44.3-88.6-55.5-96.2-33.1-185.4 11.1-268.6 45.9-80.5 33.8-162.8 78.2-257.8 124.5-10.8 5.3-21.6 10.7-32.4 16-55.5 26.8-118 52.4-175.3 42.3-58.5-10.2-94.3-50.3-131.1-83.6-43.2-39.1-93.4-75.8-154.4-99.9-62.3-24.6-136.9-35.2-207.3-21.4-48.9 9.6-93.4 29.5-134.9 50.1-6.5 3.2-12.8 6.7-19.2 9.6-150.6 66.4-247.1 87.1-293.1 185.3"/>
					<path id="Vector-45" class="s0" d="m1980.6 403.8c-7.8-84.6-84.2-132.5-206-228.9-27.5-21.8-55.8-43.5-87.7-54.8-94.9-33.7-182.5 5.9-265.6 38.7-79.4 31.4-161.2 74-256.2 119.5-10.7 5.1-21.4 10.4-32.2 15.5-55 26.2-116.6 51.3-173.3 42.6-57.8-8.8-94.1-45.9-131.3-76.6-43.7-36.1-94-69.9-154.5-91.8-62.1-22.4-135.7-31.6-205.2-18.1-48.4 9.3-92.6 28.4-134 47.7-6.4 3-12.6 6.3-19.1 9-152.9 62.4-248.3 72.7-292 166"/>
					<path id="Vector-46" class="s0" d="m1983.5 397.5c-7.5-80.2-84.9-121.1-208.7-217.4-27.4-21.3-55.4-42.6-86.8-54.1-93.5-34.1-179.5 0.8-262.6 31.6-78.4 29-159.5 69.8-254.6 114.4-10.7 5-21.3 10.2-31.9 15.2-54.6 25.6-115.3 50.2-171.3 42.9-57.3-7.5-94-41.6-131.5-69.7-44.3-33.1-94.8-63.9-154.8-83.6-61.8-20.3-134.4-28.1-203-14.9-47.9 9.1-91.8 27.2-133 45.2-6.4 2.8-12.6 6-19 8.4-155.4 58.3-249.6 58.4-290.9 146.8"/>
					<path id="Vector-47" class="s0" d="m1986.3 391.1c-7-75.6-85.4-109.6-211.2-205.7-27.4-20.8-55.1-41.8-86-53.4-92.2-34.7-176.6-4.3-259.7 24.4-77.2 26.6-157.8 65.7-252.9 109.4-10.6 4.9-21.1 9.9-31.7 14.8-54 24.9-113.9 49.1-169.3 43.1-56.6-6-93.8-37.3-131.7-62.7-44.8-30-95.4-58-155-75.5-61.4-18.1-133.1-24.5-200.8-11.7-47.5 9-91.1 26.2-132 42.9-6.4 2.6-12.6 5.6-19 7.8-157.8 54.2-250.8 44.1-289.8 127.6"/>
					<path id="Vector-48" class="s0" d="m1989.2 384.8c-6.7-71.2-86-98.3-213.9-194.1-27.3-20.4-54.7-41-85-52.7-90.9-35.3-173.7-9.4-256.8 17.1-76.1 24.4-156.1 61.6-251.3 104.5-10.5 4.7-20.9 9.6-31.4 14.3-53.6 24.4-112.7 48-167.4 43.5-56-4.6-93.6-33-131.9-55.8-45.3-27-96.1-52-155.1-67.4-61.2-15.9-131.8-20.9-198.7-8.4-47 8.8-90.3 25-131 40.5-6.4 2.4-12.6 5.2-18.9 7.2-160.4 49.9-252.1 29.7-288.8 108.3"/>
					<path id="Vector-49" class="s0" d="m1992 378.5c-6.2-66.8-86.5-86.9-216.5-182.5-27.2-20-54.3-40.2-84.1-52.1-89.5-35.8-170.8-14.4-253.8 10-75 22.1-154.5 57.5-249.7 99.4-10.4 4.6-20.8 9.4-31.2 14-53.1 23.7-111.3 46.9-165.4 43.8-55.3-3.3-93.5-28.7-132.1-48.9-45.9-24-96.8-46-155.3-59.3-60.9-13.7-130.5-17.4-196.5-5.1-46.5 8.5-89.5 23.9-130 38-6.4 2.3-12.5 4.8-18.8 6.6-163.1 45.6-253.3 15.4-287.8 89.1"/>
					<path id="Vector-50" class="s0" d="m1994.9 372.2c-5.8-62.3-87.1-75.6-219.2-170.9-27.1-19.5-53.9-39.4-83.2-51.4-88.2-36.4-167.8-19.5-250.9 2.8-73.8 19.8-152.7 53.3-248.1 94.4-10.3 4.4-20.5 9-30.8 13.6-52.7 23-110 45.8-163.5 44-54.7-1.8-93.3-24.4-132.2-41.9-46.5-20.9-97.5-40.1-155.6-51.1-60.6-11.6-129.2-13.9-194.4-2-46 8.4-88.6 22.8-128.9 35.7-6.4 2-12.5 4.4-18.8 6-165.6 41.1-254.5 1.1-286.7 69.8"/>
					<path id="Vector-51" class="s0" d="m1997.7 365.9c-5.4-57.9-87.5-64.3-221.8-159.3-27-19.1-53.5-38.6-82.2-50.8-86.9-36.9-164.9-24.4-248-4.3-72.7 17.5-151.1 49.2-246.5 89.4-10.2 4.3-20.4 8.8-30.6 13.2-52.2 22.4-108.7 44.7-161.4 44.3-54.1-0.5-93.2-20.1-132.5-35-47.1-17.9-98.2-34.1-155.7-43-60.4-9.3-128-10.3-192.3 1.3-45.5 8.2-87.8 21.7-127.9 33.3-6.4 1.9-12.5 4-18.7 5.4-168.3 36.5-255.8-13.3-285.7 50.6"/>
					<path id="Vector-52" class="s0" d="m2000.6 359.6c-5-53.5-88.1-53-224.4-147.7-26.9-18.7-53.2-37.8-81.4-50.1-85.6-37.5-161.9-29.4-245-11.6-71.6 15.4-149.4 45.1-244.9 84.4-10.1 4.2-20.2 8.6-30.3 12.8-51.8 21.8-107.4 43.7-159.5 44.6-53.5 1-93-15.7-132.7-28-47.6-14.8-98.9-28.1-155.9-34.9-60.1-7.1-126.7-6.8-190.1 4.6-45 7.9-87.1 20.5-127 30.9-6.3 1.6-12.4 3.6-18.6 4.7-170.8 31.9-257-27.6-284.5 31.4"/>
					<path id="Vector-53" class="s0" d="m2003.4 353.3c-4.6-49-88.5-41.7-227-136.1-26.8-18.2-52.8-37-80.5-49.4-84.2-38.1-158.9-34.4-242.1-18.8-70.4 13.2-147.6 41-243.2 79.4-10.1 4-20 8.2-30.1 12.4-51.3 21.2-106 42.6-157.5 44.9-52.9 2.4-92.9-11.4-132.9-21.1-48.2-11.7-99.5-22.1-156.1-26.7-59.8-5-125.3-3.3-187.9 7.7-44.6 7.8-86.3 19.5-126 28.6-6.3 1.4-12.4 3.1-18.5 4.1-173.5 27.1-258.3-41.9-283.5 12.1"/>
					<path id="Vector-54" class="s0" d="m2006.2 346.9c-4.1-44.5-88.9-30.4-229.6-124.4-26.7-17.8-52.4-36.2-79.6-48.8-82.9-38.6-155.9-39.2-239.1-25.9-69.2 11-146 36.9-241.6 74.3-10 3.9-19.9 8-29.8 12.1-50.9 20.5-104.7 41.4-155.5 45.1-52.3 3.8-92.8-7-133.1-14.1-48.8-8.6-100.3-16.1-156.4-18.6-59.5-2.7-124 0.3-185.7 11-44.1 7.6-85.5 18.3-125 26.1-6.2 1.3-12.3 2.8-18.4 3.5-176.2 22.2-259.6-56.2-282.5-7.1"/>
					<path id="Vector-55" class="s0" d="m2009.1 340.6c-3.7-40-89.4-19.2-232.3-112.8-26.5-17.4-52-35.4-78.6-48.1-81.6-39.2-152.9-44.1-236.2-33.1-68.1 8.9-144.3 32.8-240 69.3-9.9 3.8-19.7 7.7-29.6 11.6-50.3 20-103.4 40.4-153.5 45.5-51.7 5.2-92.6-2.6-133.3-7.2-49.4-5.5-101-10.1-156.5-10.5-59.3-0.4-122.8 3.8-183.6 14.3-43.6 7.4-84.7 17.1-124 23.7-6.2 1.1-12.3 2.3-18.4 2.9-178.8 17.1-260.7-70.6-281.4-26.3"/>
					<path id="Vector-56" class="s0" d="m2011.9 334.3c-3.3-35.6-89.8-8-234.8-101.2-26.5-17-51.7-34.6-77.8-47.5-80.2-39.7-149.9-48.8-233.3-40.3-66.9 6.9-142.5 28.8-238.3 64.4-9.8 3.6-19.6 7.4-29.3 11.2-49.9 19.3-102.1 39.3-151.6 45.8-51 6.6-92.5 1.7-133.5-0.3-49.9-2.4-101.6-4-156.7-2.4-58.9 1.8-121.5 7.4-181.4 17.5-43.1 7.3-84 16.1-123 21.4-6.2 0.9-12.3 1.9-18.3 2.3-181.4 11.9-262-84.9-280.4-45.6"/>
					<path id="Vector-57" class="s0" d="m2014.8 328c-2.9-31.2-90.3 3.1-237.5-89.6-26.4-16.6-51.3-33.8-76.9-46.8-78.9-40.3-146.9-53.6-230.3-47.5-65.7 4.8-140.9 24.7-236.8 59.3-9.7 3.5-19.3 7.2-29 10.9-49.4 18.6-100.7 38.2-149.6 46-50.4 8.1-92.3 6.1-133.7 6.7-50.5 0.7-102.3 2-156.9 5.8-58.6 4-120.2 10.9-179.2 20.7-42.7 7-83.2 14.9-122 19-6.2 0.6-12.3 1.4-18.3 1.6-183.9 6.7-263.2-99.2-279.3-64.8"/>
					<path id="Vector-58" class="s0" d="m2017.6 321.7c-2.5-26.7-90.6 14.2-240.1-78-26.2-16.2-50.9-33-75.9-46.1-77.6-40.9-144-58.3-227.4-54.7-64.6 2.7-139.2 20.6-235.2 54.3-9.6 3.4-19.1 6.9-28.7 10.4-49 18.1-99.4 37.3-147.6 46.4-49.8 9.5-92.2 10.5-133.9 13.6-51.1 3.8-103.1 8-157.1 13.9-58.4 6.3-119 14.5-177.2 24-42.1 6.8-82.3 13.7-121 16.5-6.1 0.5-12.2 1.1-18.1 1.1-186.5 1.2-264.5-113.6-278.3-84.1"/>
					<path id="Vector-59" class="s0" d="m2020.5 315.4c-2.1-22.3-91.1 25.3-242.8-66.4-26.1-15.8-50.5-32.2-75-45.5-76.2-41.4-141-62.9-224.5-61.9-63.4 0.8-137.4 16.6-233.5 49.4-9.5 3.2-19 6.6-28.5 10-48.5 17.4-98.1 36.2-145.6 46.6-49.2 11-92 14.9-134.1 20.6-51.6 6.9-103.7 14.1-157.3 22-58.1 8.6-117.6 18-175 27.2-41.6 6.7-81.5 12.7-120 14.2-6.1 0.3-12.1 0.6-18 0.5-189-4.4-265.8-127.9-277.2-103.4"/>
					<path id="Vector-60" class="s0" d="m2023.3 309.1c-1.7-17.8-91.4 36.3-245.4-54.8-26-15.4-50.1-31.4-74.1-44.8-74.9-42-138-67.5-221.5-69.1-62.3-1.1-135.7 12.6-231.9 44.3-9.4 3.1-18.8 6.4-28.2 9.7-48.1 16.8-96.8 35.1-143.7 46.9-48.5 12.4-91.8 19.3-134.3 27.5-52.2 10.1-104.4 20.2-157.5 30.1-57.7 10.9-116.3 21.6-172.8 30.5-41.2 6.4-80.7 11.5-119 11.8-6.1 0.1-12.1 0.2-18-0.2-191.4-10-266.9-142.2-276.1-122.5"/>
					<path id="Vector-61" class="s0" d="m2026.2 302.8c-1.3-13.4-91.8 47.3-248-43.2-25.9-15-49.8-30.6-73.3-44.2-73.4-42.7-135.1-72-218.5-76.2-61.2-3.1-134 8.5-230.3 39.3-9.4 3-18.7 6.1-27.9 9.3-47.7 16.1-95.5 34-141.8 47.1-47.9 13.8-91.6 23.8-134.5 34.5-52.7 13.2-105 26.2-157.6 38.3-57.5 13.1-115.1 25.1-170.7 33.7-40.7 6.2-80 10.3-118 9.4-6.1-0.2-12.1-0.3-17.9-0.8-193.7-15.8-268.2-156.5-275.1-141.8"/>
					<path id="Vector-62" class="s0" d="m2029 296.4c-0.8-8.9-92.1 58.4-250.6-31.5-25.8-14.7-49.4-29.8-72.3-43.5-72.1-43.3-132.3-76.6-215.7-83.4-60.1-5-132.3 4.5-228.6 34.3-9.3 2.8-18.5 5.8-27.7 8.8-47.1 15.6-94.1 32.9-139.7 47.5-47.3 15.2-91.5 28.1-134.7 41.4-53.3 16.4-105.7 32.3-157.9 46.4-57.2 15.5-113.8 28.7-168.5 36.9-40.2 6.1-79.2 9.2-117 7.1-6.1-0.4-12-0.8-17.9-1.4-195.9-21.8-269.4-170.9-274-161.1"/>
					<path id="Vector-63" class="s0" d="m2031.8 290.1c-0.4-4.4-92.3 69.3-253.2-19.9-25.6-14.3-49-29-71.4-42.8-70.8-43.9-129.4-81-212.7-90.7-59.1-6.8-130.5 0.7-227 29.3q-13.8 4.1-27.4 8.5c-46.7 14.9-92.9 31.8-137.8 47.8-46.7 16.5-91.3 32.5-134.9 48.3-53.7 19.6-106.3 38.5-158.1 54.5-56.8 17.9-112.4 32.2-166.3 40.2-39.8 5.9-78.4 8-116 4.6-6.1-0.5-12-1.1-17.8-2-198.2-27.7-270.7-185.2-273-180.3"/>
					<path id="Vector-64" class="s0" d="m2034.7 283.8c0 0-92.7 80.2-255.9-8.4-163.1-88.5-227.2-195.6-505.6-115.6-278.5 79.9-521.8 246.4-735.5 219.7-213.8-26.7-289.7-202.1-289.7-202.1"/>
				</g>
				<path id="Vector-65" class="s0" d="m2158.7 228c-16.7-44.8-65.5-71.4-113.2-74.9-47.7-3.4-94.6 12.1-139.1 29.6-92 36.3-180.2 82.2-274 113.4-93.8 31.1-196.2 46.9-291.6 20.9-58.6-16-112.5-47.2-171.8-60.6-118.9-26.8-240.4 20.6-361.5 34.6-91.6 10.6-126-33.5-177.1-98.5-49.5-63.1-122.8-107.2-201.8-121.3-79-14.2-163 1.7-231.4 43.7"/>
				<path id="Vector-66" class="s0" d="m2160.4 221.7c-18.6-42-68.4-67-116.9-68.9-48.5-1.9-96.4 14.5-142.1 32.4-92.4 36.3-181.5 81.1-275.8 110-93.8 29-195.4 41.9-290.8 15.9-58.5-15.9-112.4-46-171.5-58.9-118.5-25.6-239.5 21-360.1 34.9-91.1 10.5-126.8-32.1-178.6-95.6-49.9-61.6-122.5-105.3-200.9-117.6-78.1-12.5-160.7 4.6-228.4 46.6"/>
				<path id="Vector-67" class="s0" d="m2162.1 215.4c-20.4-39.2-71.3-62.6-120.5-63-49.4-0.3-98.2 17-145.1 35.2-92.9 36.4-183.1 79.9-277.6 106.7-93.9 26.7-194.6 37-290.1 10.9-58.3-15.8-112.3-45-171.2-57.2-118.1-24.5-238.5 21.4-358.6 35.2-90.6 10.4-127.9-30.7-180.2-92.8-50.4-59.8-122.3-103.3-199.9-113.9-77.3-10.8-158.4 7.5-225.5 49.5"/>
				<path id="Vector-68" class="s0" d="m2163.9 209.1c-22.3-36.5-74.3-58.2-124.3-57.1-50.2 1.3-100 19.5-148.1 38.1-93.3 36.4-184.5 78.7-279.3 103.3-94 24.5-193.9 32-289.5 6-58-15.8-112-44-170.8-55.6-117.7-23.4-237.5 21.8-357.2 35.5-90 10.3-128.8-29.3-181.7-89.9-50.8-58.2-122-101.1-199-110.2-76.4-9-156.1 10.4-222.6 52.4"/>
				<path id="Vector-69" class="s0" d="m2165.6 202.7c-24.1-33.6-77.2-53.7-127.9-51-51.1 2.8-101.8 21.9-151.1 40.9-93.8 36.4-186 77.5-281.2 100-94 22.2-193.1 26.9-288.7 0.9-57.8-15.8-111.9-42.9-170.5-53.9-117.3-22.2-236.6 22.2-355.7 35.8-89.5 10.2-129.7-27.9-183.3-87.1-51.2-56.5-121.8-99.1-198-106.4-75.6-7.3-153.8 13.3-219.7 55.2"/>
				<path id="Vector-70" class="s0" d="m2167.3 196.4c-26-30.8-80.1-49.3-131.6-45.1-51.9 4.5-103.5 24.4-154.1 43.8-94.2 36.4-187.4 76.3-282.9 96.6-94 20-192.4 21.9-288-4.1-57.7-15.7-111.8-41.7-170.3-52.2-116.8-21-235.5 22.7-354.2 36.1-88.9 10.1-130.6-26.5-184.9-84.2-51.5-54.9-121.4-97.1-196.9-102.7-74.8-5.6-151.5 16.1-216.8 58.1"/>
				<path id="Vector-71" class="s0" d="m2169 190.1c-27.8-28-83-45-135.2-39.2-52.8 6-105.4 26.9-157.2 46.6-94.6 36.4-188.8 75.2-284.7 93.3-94 17.8-191.5 16.9-287.3-9.1-57.4-15.6-111.6-40.6-169.9-50.5-116.4-19.9-234.6 23.1-352.7 36.4-88.4 10-131.5-25.1-186.5-81.4-51.9-53.2-121.1-95-196-98.9-73.9-3.9-149.2 19-213.8 60.9"/>
				<path id="Vector-72" class="s0" d="m2170.8 183.8c-29.7-25.2-85.9-40.6-139-33.2-53.6 7.5-107.1 29.4-160.1 49.4-95.1 36.4-190.2 74-286.5 89.9-94.1 15.6-190.8 12-286.6-14.1-57.2-15.5-111.4-39.5-169.6-48.8-116-18.7-233.6 23.5-351.3 36.7-87.8 9.9-132.4-23.7-188-78.5-52.3-51.6-120.9-93.1-195-95.3-73.1-2.1-146.9 21.9-210.9 63.8"/>
				<path id="Vector-73" class="s0" d="m2172.5 177.5c-31.5-22.4-88.8-36.3-142.6-27.3-54.5 9.1-109 31.8-163.2 52.3-95.6 36.2-191.6 72.8-288.3 86.6-94 13.4-189.9 6.9-285.8-19.1-57.1-15.5-111.3-38.5-169.3-47.3-115.6-17.5-232.6 24-349.8 37.1-87.4 9.8-133.3-22.3-189.6-75.7-52.6-50-120.6-91-194.1-91.5-72.1-0.4-144.5 24.8-207.9 66.7"/>
				<path id="Vector-74" class="s0" d="m2174.2 171.2c-33.4-19.7-91.7-31.9-146.3-21.4-55.3 10.7-110.7 34.3-166.1 55.2-96.1 36.2-193.1 71.7-290.1 83.2-94.1 11.2-189.2 1.9-285.1-24.1-56.9-15.5-111.2-37.4-169-45.6-115.2-16.3-231.7 24.5-348.4 37.4-86.8 9.7-134.1-20.9-191.1-72.8-53-48.4-120.3-89.1-193.1-87.8-71.3 1.3-142.3 27.7-205 69.5"/>
				<path id="Vector-75" class="s0" d="m2176 164.9c-35.3-16.9-94.7-27.5-150-15.4-56.2 12.2-112.6 36.7-169.2 58-96.5 36.2-194.5 70.5-291.8 79.8-94.1 9-188.5-3.1-284.5-29.1-56.6-15.4-110.9-36.3-168.6-43.9-114.7-15.2-230.7 24.9-346.9 37.7-86.3 9.6-135.1-19.5-192.7-70-53.4-46.7-120.1-87-192.2-84-70.4 2.9-139.9 30.5-202 72.4"/>
				<path id="Vector-76" class="s0" d="m2177.7 158.6c-37.1-14.1-97.6-23.1-153.7-9.5-57 13.8-114.3 39.2-172.1 60.8-97 36.3-195.9 69.4-293.7 76.6-94 6.8-187.7-8.2-283.7-34.2-56.4-15.3-110.8-35.2-168.3-42.2-114.3-14-229.7 25.3-345.5 38.1-85.7 9.4-135.9-18.2-194.2-67.2-53.7-45.1-119.8-85.1-191.2-80.3-69.6 4.6-137.6 33.4-199.1 75.2"/>
				<path id="Vector-77" class="s0" d="m2179.4 152.3c-39-11.3-100.5-18.7-157.3-3.6-57.9 15.5-116.1 41.7-175.2 63.7-97.4 36.3-197.3 68.3-295.4 73.2-94.1 4.7-186.9-13.1-283-39.2-56.3-15.2-110.7-34.1-168-40.5-113.9-12.9-228.8 25.7-344 38.4-85.2 9.3-136.8-16.8-195.9-64.4-54-43.5-119.4-83.1-190.2-76.5-68.7 6.3-135.3 36.3-196.1 78.1"/>
				<path id="Vector-78" class="s0" d="m2181.2 146c-40.9-8.5-103.4-14.3-161.1 2.4-58.7 17-117.9 44.1-178.2 66.5-97.8 36.3-198.6 67.2-297.2 69.8-94 2.5-186.1-18.1-282.2-44.1-56.1-15.2-110.6-33.1-167.7-38.9-113.5-11.7-227.8 26.2-342.6 38.7-84.6 9.2-137.6-15.5-197.4-61.5-54.3-41.9-119.1-81.1-189.2-72.9-67.8 8-133 39.2-193.2 81"/>
				<path id="Vector-79" class="s0" d="m2182.9 139.7c-42.7-5.7-106.3-9.9-164.7 8.3-59.6 18.6-119.7 46.6-181.2 69.4-98.3 36.3-200.1 66-299 66.4-94.1 0.4-185.4-23.1-281.6-49.1-55.8-15.2-110.3-32-167.3-37.2-113.1-10.6-226.8 26.6-341.1 39-84.1 9.1-138.4-14.1-199-58.7-54.7-40.2-118.8-79.1-188.3-69.1-66.9 9.7-130.7 42.1-190.2 83.9"/>
				<path id="Vector-80" class="s0" d="m2184.6 133.4c-44.6-2.9-109.2-5.5-168.4 14.3-60.4 20.1-121.4 49-184.2 72.1-98.7 36.4-201.5 65-300.8 63.2-94-1.8-184.5-28.2-280.8-54.2-55.6-15.1-110.2-30.9-167-35.5-112.7-9.4-225.9 27-339.7 39.3-83.5 9-139.2-12.7-200.5-55.8-55-38.7-118.5-77.2-187.3-65.4-66.1 11.3-128.4 45-187.3 86.7"/>
				<path id="Vector-81" class="s0" d="m2186.4 127.1c-46.5-0.2-112.2-1.1-172.1 20.2-61.3 21.7-123.3 51.5-187.2 75-99.2 36.4-202.9 63.9-302.6 59.8-94.1-3.9-183.8-33.2-280.1-59.2-55.5-15-110.1-29.8-166.7-33.9-112.3-8.2-224.9 27.5-338.2 39.7-83.1 8.9-140.1-11.4-202.1-53-55.3-37.1-118.3-75.2-186.3-61.6-65.2 13-126.1 47.8-184.4 89.6"/>
				<path id="Vector-82" class="s0" d="m2188.1 120.8c-48.3 2.6-115.1 3.3-175.8 26.1-62.1 23.4-125 54.1-190.2 77.9-99.6 36.4-204.3 62.8-304.3 56.4-94.1-6-183.1-38.1-279.4-64.2-55.3-14.9-109.9-28.7-166.4-32.2-111.9-7-224 27.9-336.8 40-82.5 8.8-140.9-10.1-203.7-50.2-55.5-35.4-117.9-73.2-185.3-57.8-64.3 14.6-123.8 50.7-181.4 92.4"/>
				<path id="Vector-83" class="s0" d="m2189.8 114.4c-50.1 5.5-118 7.8-179.4 32.2-63 24.9-126.9 56.5-193.2 80.7-100.1 36.4-205.8 61.7-306.2 53-94-8.1-182.2-43.1-278.7-69.2-55-14.8-109.7-27.6-166-30.5-111.5-5.9-223 28.4-335.3 40.3-82 8.7-141.7-8.7-205.3-47.3-55.8-33.9-117.6-71.3-184.4-54.2-63.4 16.3-121.4 53.6-178.4 95.4"/>
				<path id="Vector-84" class="s0" d="m2191.6 108.1c-52.1 8.3-120.9 12.2-183.2 38.1-63.7 26.5-128.5 59.1-196.2 83.5-100.5 36.7-207.1 60.7-307.9 49.7-94.1-10.2-181.5-48.1-278-74.1-54.8-14.9-109.6-26.6-165.7-28.9-111.1-4.7-222 28.8-333.9 40.6-81.4 8.6-142.5-7.4-206.8-44.5-56.1-32.3-117.3-69.3-183.4-50.4-62.6 17.9-119.1 56.5-175.5 98.2"/>
				<path id="Vector-85" class="s0" d="m2193.3 101.8c-53.9 11.1-123.8 16.7-186.8 44-64.6 28.3-130.4 61.6-199.3 86.4-100.9 36.7-208.5 59.6-309.7 46.4-94-12.4-180.7-53.2-277.2-79.2-54.7-14.8-109.5-25.5-165.4-27.2-110.7-3.6-221.1 29.2-332.4 40.9-80.9 8.5-143.3-6.1-208.4-41.6-56.4-30.8-117.1-67.4-182.4-46.7-61.7 19.5-116.9 59.4-172.6 101.1"/>
				<path id="Vector-86" class="s0" d="m2195 95.5c-55.7 13.9-126.6 21.1-190.5 50-65.4 29.8-132.1 64.1-202.2 89.2-101.4 36.7-210 58.6-311.5 43-94.1-14.4-180-58.1-276.5-84.2-54.5-14.7-109.3-24.4-165.1-25.5-110.3-2.4-220.1 29.6-331 41.2-80.3 8.4-144.1-4.8-209.9-38.7-56.7-29.3-116.8-65.5-181.5-43-60.8 21.2-114.5 62.2-169.6 103.9"/>
				<path id="Vector-87" class="s0" d="m2196.8 89.2c-57.7 16.6-129.6 25.5-194.2 55.9-66.3 31.4-134 66.6-205.3 92.1-101.8 36.7-211.3 57.5-313.3 39.6-94-16.5-179.1-63.1-275.8-89.2-54.2-14.6-109.1-23.3-164.7-23.8-109.9-1.3-219.1 30.1-329.5 41.5-79.8 8.3-144.9-3.5-211.5-35.9-57-27.7-116.5-63.6-180.5-39.2-60 22.8-112.2 65.1-166.7 106.8"/>
				<path id="Vector-88" class="s0" d="m2198.5 82.9c-59.5 19.4-132.5 29.9-197.9 61.8-67.1 33-135.7 69.1-208.2 94.9-102.3 36.8-212.8 56.6-315.1 36.4-94.1-18.6-178.4-68.2-275.1-94.3q-20.1-5.4-40.5-9.6-20.4-4.1-41-6.9-20.6-2.8-41.4-4.2-20.7-1.4-41.5-1.4c-109.5-0.1-218.2 30.5-328.1 41.8-79.3 8.3-145.6-2.3-213-33.1-57.3-26.1-116.3-61.6-179.6-35.5-59.1 24.4-109.9 68.1-163.7 109.7"/>
				<path id="Vector-89" class="s0" d="m2200.2 76.6c-61.3 22.2-135.4 34.3-201.5 67.8-68 34.6-137.5 71.5-211.3 97.7-102.7 36.8-214.2 55.5-316.8 33-94.1-20.7-177.7-73.2-274.4-99.2q-20.1-5.4-40.4-9.4-20.4-4-41-6.6-20.6-2.5-41.3-3.7-20.7-1.1-41.4-0.9c-109.1 1.1-217.2 31-326.6 42.2-78.8 8.1-146.5-1-214.7-30.2-57.5-24.7-115.9-59.7-178.5-31.8-58.3 26-107.6 70.9-160.8 112.6"/>
				<path id="Vector-90" class="s0" d="m2201.9 70.3c-63.2 25-138.3 38.7-205.2 73.7-68.8 36.2-139.3 74-214.2 100.6-103.2 36.8-215.7 54.5-318.7 29.6-94.1-22.7-176.8-78.2-273.6-104.2-53.7-14.5-108.7-20.1-163.8-18.9-108.6 2.3-216.3 31.4-325.2 42.6-78.2 8-147.2 0.2-216.2-27.4-57.8-23.2-115.7-57.9-177.6-28.1-57.4 27.6-105.2 73.8-157.8 115.4"/>
				<path id="Vector-91" class="s0" d="m2203.7 64c-65.1 27.8-141.2 43.1-208.9 79.6-69.7 37.8-141.1 76.5-217.3 103.5-103.6 36.8-217.1 53.4-320.4 26.2-94.1-24.8-176.1-83.1-273-109.2-53.4-14.4-108.5-19-163.5-17.2-108.1 3.4-215.2 31.9-323.6 42.9-77.7 7.9-148.1 1.4-217.8-24.6-58.1-21.7-115.4-55.9-176.6-24.3-56.6 29.2-103 76.7-155 118.3"/>
				<path id="Vector-92" class="s0" d="m2205.4 57.7c-66.9 30.6-144.1 47.5-212.5 85.6-70.5 39.3-142.9 78.9-220.4 106.2-104 36.9-218.5 52.5-322.2 22.9-94.1-26.8-175.3-88.1-272.2-114.2-53.3-14.3-108.4-17.9-163.2-15.5-107.7 4.6-214.2 32.3-322.2 43.2-77.1 7.8-148.8 2.6-219.3-21.8-58.4-20.1-115.2-54-175.7-20.5-55.7 30.8-100.6 79.5-152 121.1"/>
				<path id="Vector-93" class="s0" d="m2207.1 51.4c-68.7 33.3-147 51.9-216.2 91.5-71.3 40.9-144.7 81.5-223.3 109.1-104.5 36.9-220 51.5-324 19.6-94.2-28.9-174.5-93.2-271.5-119.3-53.1-14.2-108.2-16.8-162.9-13.8-107.3 5.7-213.3 32.7-320.7 43.5-76.6 7.7-149.6 3.8-220.9-18.9-58.7-18.7-114.9-52.1-174.7-16.9-54.9 32.5-98.4 82.5-149.1 124"/>
				<path id="Vector-94" class="s0" d="m2208.9 45.1c-70.7 36.1-150 56.3-219.9 97.4-72.2 42.6-146.5 84-226.4 112-104.9 36.9-221.4 50.7-325.8 16.2-94.2-30.7-173.7-98.2-270.8-124.2-52.8-14.2-108-15.7-162.5-12.2-106.9 6.9-212.3 33.1-319.3 43.8-76.1 7.6-150.4 5-222.5-16.1-58.9-17.2-114.6-50.2-173.7-13.1-54 34-96 85.4-146.1 126.9"/>
				<path id="Vector-95" class="s0" d="m2210.6 38.8c-72.5 38.9-152.9 60.7-223.6 103.4-73 44.1-148.3 86.4-229.3 114.8-105.4 36.9-222.9 49.6-327.6 12.8-94.3-32.9-173-103.2-270.1-129.2-52.6-14.2-107.9-14.6-162.2-10.5-106.5 8-211.3 33.5-317.8 44.1-75.6 7.5-151.2 6.2-224.1-13.2-59.2-15.8-114.4-48.4-172.7-9.4-53.3 35.5-93.7 88.2-143.2 129.8"/>
				<path id="Vector-96" class="s0" d="m2212.3 32.4c-74.3 41.8-155.7 65.2-227.2 109.4-73.9 45.7-150.1 88.9-232.4 117.6-105.8 37-224.3 48.6-329.3 9.6-94.4-35.1-172.2-108.2-269.4-134.3-52.5-14.1-107.8-13.5-161.9-8.8-106.1 9.2-210.4 34-316.4 44.4-75 7.4-152 7.4-225.6-10.4-59.5-14.3-114.2-46.4-171.8-5.6-52.4 37.2-91.4 91.1-140.2 132.6"/>
			</g>
		</g>
	</g>
</svg>